<?xml version="1.0" standalone="no"?>
<!DOCTYPE svg PUBLIC "-//W3C//DTD SVG 20010904//EN"
 "http://www.w3.org/TR/2001/REC-SVG-20010904/DTD/svg10.dtd">
<svg version="1.0" xmlns="http://www.w3.org/2000/svg"
 width="2000.000000pt" height="2000.000000pt" viewBox="0 0 2000.000000 2000.000000"
 preserveAspectRatio="xMidYMid meet">
<metadata>
Created by potrace 1.14, written by Peter Selinger 2001-2017
</metadata>
<g transform="translate(0.000000,2000.000000) scale(0.100000,-0.100000)"
fill="#000000" stroke="none">
<path d="M4543 18683 c9 -2 25 -2 35 0 9 3 1 5 -18 5 -19 0 -27 -2 -17 -5z"/>
<path d="M4728 18683 c12 -2 30 -2 40 0 9 3 -1 5 -23 4 -22 0 -30 -2 -17 -4z"/>
<path d="M5156 18677 c214 -6 735 -6 1405 0 l1064 9 -1405 0 c-1117 0 -1335
-1 -1064 -9z"/>
<path d="M11573 18683 c9 -2 25 -2 35 0 9 3 1 5 -18 5 -19 0 -27 -2 -17 -5z"/>
<path d="M11773 18683 c48 -2 126 -2 175 0 48 1 8 3 -88 3 -96 0 -136 -2 -87
-3z"/>
<path d="M13055 18680 c613 -7 2172 -7 2510 0 149 3 -459 5 -1350 5 -891 0
-1413 -2 -1160 -5z"/>
<path d="M16368 18648 c11 -10 168 -22 159 -12 -5 5 -44 11 -87 14 -44 3 -76
2 -72 -2z"/>
<path d="M3760 18639 c-11 -7 3 -8 45 -3 33 3 62 8 64 10 10 9 -96 3 -109 -7z"/>
<path d="M3623 18603 c9 -2 23 -2 30 0 6 3 -1 5 -18 5 -16 0 -22 -2 -12 -5z"/>
<path d="M16611 18606 c11 -9 69 -14 69 -6 0 6 -16 10 -37 10 -20 0 -34 -2
-32 -4z"/>
<path d="M3463 18563 c9 -2 23 -2 30 0 6 3 -1 5 -18 5 -16 0 -22 -2 -12 -5z"/>
<path d="M16940 18526 c0 -9 30 -14 35 -6 4 6 -3 10 -14 10 -12 0 -21 -2 -21
-4z"/>
<path d="M17050 18474 c0 -11 5 -14 16 -10 9 3 20 6 25 6 6 0 7 5 4 10 -10 16
-45 12 -45 -6z"/>
<path d="M17260 18400 c20 -13 33 -13 25 0 -3 6 -14 10 -23 10 -15 0 -15 -2
-2 -10z"/>
<path d="M17340 18360 c20 -13 33 -13 25 0 -3 6 -14 10 -23 10 -15 0 -15 -2
-2 -10z"/>
<path d="M2835 18320 c-3 -6 1 -7 9 -4 18 7 21 14 7 14 -6 0 -13 -4 -16 -10z"/>
<path d="M17425 18320 c3 -5 11 -10 16 -10 6 0 7 5 4 10 -3 6 -11 10 -16 10
-6 0 -7 -4 -4 -10z"/>
<path d="M2755 18280 c-3 -6 1 -7 9 -4 18 7 21 14 7 14 -6 0 -13 -4 -16 -10z"/>
<path d="M17500 18286 c0 -2 7 -7 16 -10 8 -3 12 -2 9 4 -6 10 -25 14 -25 6z"/>
<path d="M17705 18160 c3 -5 11 -10 16 -10 6 0 7 5 4 10 -3 6 -11 10 -16 10
-6 0 -7 -4 -4 -10z"/>
<path d="M17765 18120 c3 -5 11 -10 16 -10 6 0 7 5 4 10 -3 6 -11 10 -16 10
-6 0 -7 -4 -4 -10z"/>
<path d="M17825 18080 c3 -5 11 -10 16 -10 6 0 7 5 4 10 -3 6 -11 10 -16 10
-6 0 -7 -4 -4 -10z"/>
<path d="M17875 18040 c3 -5 8 -10 11 -10 2 0 4 5 4 10 0 6 -5 10 -11 10 -5 0
-7 -4 -4 -10z"/>
<path d="M4320 17993 c-226 -10 -455 -43 -630 -90 -97 -26 -241 -74 -295 -98
-16 -8 -54 -23 -82 -34 -65 -25 -262 -127 -284 -147 -8 -8 -18 -14 -22 -14
-14 0 -149 -94 -186 -128 -8 -8 -37 -31 -65 -52 -46 -35 -226 -215 -317 -316
-44 -49 -168 -219 -176 -242 -4 -9 -19 -35 -33 -57 -39 -56 -122 -252 -158
-370 -17 -55 -42 -138 -57 -185 -32 -107 -63 -302 -69 -445 -3 -60 -8 -1597
-11 -3415 -3 -1818 -8 -3417 -11 -3555 -6 -228 -6 -619 -1 -2610 1 -368 0
-944 -1 -1280 -4 -657 -2 -729 28 -945 11 -79 57 -224 95 -300 12 -25 39 -92
60 -149 40 -112 93 -217 124 -245 18 -17 19 -16 16 16 -2 18 -9 48 -14 67 -20
64 -3 43 52 -66 29 -59 97 -173 150 -252 93 -139 103 -150 302 -332 214 -196
270 -238 445 -331 283 -151 584 -248 860 -277 53 -6 463 -12 920 -13 1079 -4
1332 -9 1314 -26 -8 -7 -14 -10 -14 -6 0 3 -10 0 -22 -8 -13 -9 -59 -19 -103
-23 -44 -4 -93 -9 -110 -11 -16 -1 -79 -5 -140 -8 -60 -3 -159 -8 -219 -12
-87 -5 -521 -15 -586 -14 -8 0 -80 0 -160 -1 -567 -5 -816 -2 -839 10 -17 10
-21 10 -16 1 6 -9 3 -9 -13 -1 -15 8 -21 8 -25 -2 -3 -9 -8 -8 -22 3 -14 12
-19 12 -23 2 -3 -10 -7 -10 -18 -1 -8 7 -29 14 -47 15 -111 10 -153 17 -164
26 -7 6 -13 7 -13 2 0 -5 -4 -3 -9 5 -5 8 -32 14 -71 16 -44 2 -67 7 -75 19
-8 10 -32 17 -66 20 -33 3 -53 9 -51 16 1 6 -2 9 -8 5 -6 -4 -18 -1 -26 6 -8
6 -17 9 -21 6 -3 -4 -12 -2 -19 4 -8 6 -21 9 -29 5 -9 -3 -15 0 -15 9 0 18
-16 20 -26 3 -5 -7 -11 -5 -21 7 -7 11 -13 15 -13 11 0 -5 -6 -3 -14 3 -7 6
-24 12 -38 13 -19 2 -24 7 -20 18 5 12 3 13 -10 2 -13 -10 -17 -10 -22 3 -3 8
-13 15 -21 15 -9 0 -13 5 -10 10 6 9 -8 15 -29 11 -5 -1 -17 6 -28 16 -11 10
-23 18 -27 18 -3 0 -5 3 -4 7 1 3 -4 9 -13 12 -8 3 -12 2 -9 -4 3 -6 1 -10 -4
-10 -6 0 -11 7 -11 15 0 9 -6 12 -15 9 -8 -4 -15 -1 -15 7 0 7 -3 9 -7 6 -3
-4 -17 6 -31 21 -14 14 -30 27 -36 27 -22 2 -49 19 -82 52 -33 33 -52 43 -38
21 4 -7 3 -8 -5 -4 -6 4 -9 12 -6 17 4 5 1 9 -5 9 -6 0 -9 4 -5 9 3 5 1 12 -5
16 -5 3 -10 1 -10 -4 0 -6 -4 -11 -10 -11 -5 0 -7 7 -4 15 5 11 -1 15 -19 15
-17 0 -26 7 -30 21 -4 15 -11 20 -21 16 -11 -4 -16 -1 -16 12 0 17 -40 38 -63
32 -5 -1 -6 3 -2 9 3 6 11 7 17 4 7 -5 8 -2 4 5 -5 7 -14 10 -22 7 -9 -3 -14
1 -14 13 0 10 -7 24 -15 31 -15 13 -21 2 -7 -16 8 -11 -18 19 -48 54 -11 13
-20 28 -20 33 0 5 -5 9 -10 9 -6 0 -13 7 -17 15 -3 9 -17 28 -32 43 -14 15
-44 48 -66 74 -22 26 -45 48 -52 48 -6 0 -13 9 -15 20 -2 12 -7 20 -11 20 -5
-1 -16 12 -25 29 -10 17 -27 42 -39 56 -13 14 -21 25 -18 25 3 0 -4 9 -15 20
-12 12 -25 31 -31 43 -20 44 -36 67 -42 60 -4 -3 -7 3 -7 15 0 12 -9 31 -20
42 -11 11 -22 32 -25 47 -4 16 -13 40 -21 55 -8 15 -14 29 -14 30 1 2 -3 16
-9 31 -6 16 -11 35 -11 43 0 8 -5 14 -11 14 -6 0 -9 9 -6 20 3 11 1 23 -4 26
-5 3 -9 14 -9 24 0 10 -4 20 -9 22 -10 3 -22 45 -24 81 -1 9 -5 17 -10 17 -5
0 -3 8 4 17 8 9 9 14 4 11 -6 -4 -15 5 -22 18 -7 16 -8 26 -1 30 6 4 5 9 -3
14 -7 5 -14 19 -16 32 -1 13 -5 38 -8 55 -3 18 -5 36 -5 39 1 4 -4 11 -12 15
-8 5 -9 9 -2 9 7 0 15 7 18 16 3 8 2 12 -4 9 -14 -8 -17 36 -6 83 3 12 1 20
-4 17 -5 -3 -8 7 -6 22 1 16 -3 42 -9 58 -7 17 -13 50 -14 73 -2 64 -4 72 -14
72 -5 0 -3 8 4 17 12 14 12 16 0 8 -10 -5 -12 -4 -7 3 11 18 16 53 7 47 -14
-8 -22 25 -11 45 7 13 7 21 0 25 -7 4 -7 11 -2 18 5 7 6 21 2 32 -4 11 -4 27
1 37 6 10 3 26 -6 44 -8 15 -11 32 -7 38 11 19 11 70 0 83 -7 9 -7 13 2 13 7
0 10 7 7 15 -4 8 -2 17 4 21 6 3 6 10 1 17 -16 20 -21 84 -9 96 9 9 8 14 -2
20 -9 6 -11 15 -6 27 12 30 14 63 4 70 -5 3 -7 10 -4 15 4 5 1 9 -6 9 -7 0 -4
7 7 15 19 14 19 14 -1 15 -11 0 -16 4 -10 8 6 4 11 23 11 42 1 19 4 45 8 58 4
13 4 28 -1 35 -10 13 -10 24 2 51 4 10 4 21 -1 25 -11 7 -15 71 -5 71 9 0 8
31 -1 46 -8 12 -5 40 5 50 4 4 7 14 7 23 0 13 -2 13 -9 2 -7 -10 -10 -10 -16
-1 -4 7 -3 15 1 19 5 3 8 17 7 31 -8 81 -9 149 -3 145 4 -2 7 2 7 10 0 8 -3
15 -7 15 -7 0 -3 64 5 88 2 6 1 12 -4 12 -4 0 -7 23 -6 50 1 36 -2 50 -12 50
-17 0 -17 17 0 23 9 3 9 9 0 24 -6 11 -8 26 -3 33 4 7 6 19 3 26 -2 7 0 29 6
49 9 33 8 35 -6 23 -13 -10 -17 -10 -20 0 -3 6 -11 12 -19 12 -8 0 -11 6 -8
15 6 14 8 13 20 -2 11 -15 15 -16 26 -4 9 10 9 12 1 7 -9 -5 -13 0 -13 13 0
12 4 21 9 21 5 0 11 9 14 21 4 15 2 19 -9 15 -17 -6 -30 36 -19 61 20 46 9 68
-16 36 -10 -12 -11 -17 -2 -20 7 -2 10 -10 7 -18 -5 -11 -9 -10 -25 3 -20 17
-26 34 -10 30 5 -2 9 2 9 7 0 6 -5 9 -10 7 -11 -3 -6 35 8 72 5 14 4 17 -4 12
-7 -4 -12 -2 -12 3 0 6 5 11 12 11 6 0 8 3 5 7 -4 3 -16 -2 -27 -12 -17 -16
-20 -16 -20 -2 0 8 -2 21 -3 29 -2 7 -2 10 0 6 3 -5 12 -8 21 -8 14 0 14 2 3
9 -11 7 -11 9 0 14 10 4 9 6 -3 6 -10 1 -18 6 -18 12 0 6 -6 17 -14 25 -15 15
-30 19 -23 7 3 -5 -17 -8 -44 -8 -37 0 -49 -4 -49 -15 0 -13 -1 -13 -10 0 -16
25 -11 33 17 27 23 -4 25 -3 12 6 -9 7 -19 27 -22 44 l-6 33 57 -5 c31 -3 62
-6 69 -7 18 -2 25 -28 8 -28 -8 0 -15 4 -15 8 0 12 -72 13 -90 2 -11 -7 -7 -9
16 -6 28 3 30 1 26 -21 -4 -21 -2 -22 19 -14 18 6 28 4 40 -10 8 -10 23 -17
32 -15 22 3 34 16 16 16 -9 0 -22 6 -30 12 -8 7 -13 12 -10 11 7 -4 31 26 31
38 0 7 -3 10 -6 6 -3 -3 -20 3 -37 13 -20 12 -40 17 -59 13 -21 -4 -28 -2 -28
11 0 9 -5 16 -11 16 -5 0 -7 5 -4 10 4 6 1 18 -7 27 -9 12 -9 15 0 9 6 -4 12
-3 12 2 0 5 -9 12 -21 15 -14 4 -19 2 -16 -8 3 -7 1 -17 -5 -23 -13 -13 7 -43
24 -39 6 1 13 -4 15 -10 6 -16 -39 -17 -54 -2 -9 9 -11 7 -6 -9 3 -11 12 -23
21 -27 15 -6 15 -8 -2 -21 -11 -8 -14 -14 -7 -14 7 0 9 -5 6 -10 -4 -6 -12 -7
-18 -3 -7 4 -6 -1 2 -10 17 -22 7 -34 -14 -17 -9 7 -18 10 -22 6 -3 -3 -1 -6
5 -6 7 0 12 -7 12 -15 0 -18 12 -19 29 -2 10 10 11 9 6 -5 -4 -10 -11 -18 -16
-18 -5 0 -3 -14 6 -30 9 -17 11 -30 5 -30 -5 0 -10 7 -10 16 0 9 -5 12 -12 8
-8 -5 -4 -13 13 -26 22 -18 37 -84 16 -71 -4 2 -6 10 -4 16 4 12 -32 51 -40
43 -6 -6 9 -36 18 -36 6 0 5 -8 -1 -20 -6 -12 -17 -17 -28 -14 -14 5 -14 4 -2
-4 8 -6 17 -9 20 -7 4 2 7 -3 7 -11 0 -8 -6 -13 -13 -10 -31 12 -35 -44 -6
-79 16 -19 16 -19 -3 -4 -34 26 -52 14 -52 -36 0 -25 4 -45 9 -45 5 0 16 -7
25 -15 14 -14 13 -15 -13 -9 -25 6 -26 5 -13 -8 8 -9 18 -13 23 -10 5 3 6 0 2
-6 -5 -8 -13 -9 -25 -2 -16 8 -20 5 -23 -15 -3 -13 -2 -29 2 -36 9 -14 30 -3
30 17 0 8 5 14 10 14 6 0 1 -17 -10 -37 -23 -43 -25 -53 -9 -53 5 0 8 4 5 8
-2 4 0 14 5 22 7 11 8 8 5 -10 -2 -17 -9 -25 -24 -25 -12 0 -24 -4 -28 -8 -4
-4 -1 -7 7 -7 9 0 14 -12 15 -36 0 -31 -2 -35 -20 -30 -19 5 -18 3 4 -14 14
-11 28 -20 33 -20 18 0 5 -20 -14 -20 -11 0 -17 5 -14 10 3 6 2 10 -4 10 -20
0 -20 -19 0 -25 17 -6 18 -9 8 -16 -7 -4 -10 -11 -6 -15 4 -4 2 -13 -5 -21 -8
-10 -7 -17 7 -27 18 -13 18 -14 -2 -24 -15 -8 -24 -8 -33 1 -12 10 -12 9 -1
-5 7 -10 18 -16 23 -15 6 1 13 -4 16 -12 3 -9 0 -11 -8 -6 -8 5 -11 4 -6 -3
10 -16 14 -72 6 -77 -4 -2 -20 0 -36 5 -18 5 -22 9 -10 9 15 1 16 4 6 16 -7 9
-10 18 -6 22 3 3 6 1 6 -6 0 -7 4 -10 9 -6 6 3 2 23 -9 47 -10 23 -16 46 -14
50 10 16 13 48 3 43 -5 -4 -9 -2 -9 4 0 5 6 12 13 14 9 4 9 6 0 6 -7 1 -13 8
-13 17 0 9 5 12 13 8 9 -6 9 -4 -1 7 -14 15 -16 59 -3 59 15 0 23 32 11 44 -8
8 -9 6 -5 -6 4 -11 2 -18 -4 -18 -6 0 -11 10 -11 22 0 12 -3 130 -6 262 -3
133 -7 797 -9 1476 -1 679 -5 1442 -9 1695 -3 253 -8 834 -11 1290 -2 457 -8
1280 -12 1830 -8 1038 -11 3486 -4 3636 2 47 10 126 17 175 7 49 16 107 19
129 3 22 11 77 18 123 11 64 11 82 1 82 -7 0 -10 -8 -7 -20 3 -13 0 -20 -9
-20 -7 0 -14 -10 -15 -22 -3 -36 -67 -159 -80 -153 -12 4 -17 -12 -27 -109 -3
-26 -12 -67 -20 -90 -8 -26 -16 -117 -20 -245 -5 -128 -12 -212 -19 -225 -16
-28 -23 -10992 -7 -11336 5 -124 15 -337 20 -475 6 -137 16 -272 21 -300 5
-27 16 -98 23 -156 8 -58 18 -115 24 -125 5 -10 13 -39 17 -64 3 -25 15 -71
26 -103 10 -31 19 -64 19 -72 0 -8 9 -32 20 -52 11 -21 20 -43 20 -50 0 -7 9
-30 20 -50 11 -21 20 -45 20 -54 0 -9 7 -22 15 -29 8 -7 15 -18 15 -24 0 -6
15 -41 34 -76 19 -36 51 -98 72 -138 21 -40 44 -78 51 -84 7 -6 13 -15 13 -21
0 -6 7 -17 15 -26 27 -29 65 -79 65 -86 0 -10 160 -206 196 -240 164 -154 280
-260 318 -290 14 -11 45 -37 68 -57 24 -21 46 -38 50 -38 3 0 28 -17 55 -37
27 -21 56 -42 64 -48 9 -5 36 -23 60 -40 24 -16 51 -34 61 -40 9 -5 37 -25 63
-42 25 -18 52 -33 59 -33 7 0 25 -9 39 -20 14 -11 29 -20 35 -20 5 0 20 -8 33
-19 13 -10 39 -22 57 -25 17 -4 32 -11 32 -16 0 -5 15 -14 34 -20 19 -6 39
-17 46 -24 6 -8 27 -17 47 -21 20 -4 46 -13 57 -21 11 -8 29 -14 39 -14 10 0
35 -9 57 -20 22 -11 52 -20 67 -20 15 0 48 -9 72 -20 24 -11 54 -20 68 -20 13
0 45 -9 71 -19 26 -11 72 -22 103 -25 31 -3 71 -12 90 -20 20 -8 125 -21 254
-30 199 -15 792 -16 6130 -17 5386 -1 5944 0 6289 15 267 12 389 21 412 31 19
8 66 17 106 20 40 4 85 13 101 20 15 8 52 19 82 25 30 6 57 15 60 20 3 4 24
11 48 15 23 4 52 13 64 21 12 7 41 16 65 20 24 3 52 12 63 19 11 6 37 17 58
24 20 7 37 16 37 21 0 5 15 12 33 15 28 7 73 26 127 57 8 4 26 13 40 19 14 6
32 15 40 20 8 5 26 15 40 21 14 7 50 30 80 50 30 21 60 38 66 38 6 0 19 9 29
20 10 11 24 20 31 20 7 0 18 9 24 20 6 11 15 20 20 20 6 0 18 7 27 15 41 36
132 105 139 105 11 0 26 14 224 211 175 175 226 233 295 339 16 25 35 49 42
53 7 4 13 14 13 21 0 7 9 21 20 31 11 10 20 24 20 31 0 7 6 19 13 26 11 11 77
143 116 228 6 14 15 32 20 40 23 37 51 102 51 119 0 10 8 29 18 42 11 13 22
37 26 53 4 15 13 34 20 41 7 8 16 36 19 64 3 27 12 60 20 73 8 13 18 46 22 73
4 28 12 59 17 70 6 10 14 54 19 97 4 43 14 108 23 145 8 38 20 115 26 173 6
58 15 143 20 190 11 104 21 11331 11 11672 -4 131 -11 241 -15 245 -4 4 -11 1
-16 -7 -10 -15 -14 65 -10 186 1 29 -2 69 -6 89 -6 35 -8 37 -20 20 -15 -21
-16 -13 -16 135 1 38 -5 74 -13 86 -7 11 -16 47 -20 80 -4 32 -13 68 -20 80
-7 11 -17 43 -21 70 -4 27 -15 65 -25 84 -11 19 -19 45 -19 57 0 12 -7 26 -15
30 -8 5 -19 31 -24 58 -5 27 -14 51 -20 53 -6 2 -13 19 -17 38 -7 38 -22 53
-34 34 -5 -8 -8 6 -8 32 1 33 -5 54 -20 73 -12 15 -22 36 -22 46 0 20 -16 34
-24 21 -7 -12 19 -84 27 -75 4 3 7 -5 6 -18 0 -13 -3 -18 -6 -11 -2 6 -9 12
-15 12 -6 0 -7 -8 -3 -17 20 -51 32 -102 22 -96 -7 4 -8 -2 -3 -18 4 -13 16
-60 27 -104 11 -44 23 -87 26 -95 4 -8 5 -19 4 -23 0 -4 3 -16 9 -27 6 -11 13
-41 16 -67 7 -67 13 -100 28 -163 49 -203 55 -349 51 -1375 -2 -517 -7 -1815
-10 -2885 -11 -3807 -17 -5135 -26 -5225 -1 -5 -1 -48 0 -95 1 -118 1 -215 -3
-526 -2 -99 -6 -185 -9 -191 -4 -7 -3 -14 2 -17 4 -3 5 -23 1 -45 -4 -22 -3
-44 2 -49 6 -6 5 -13 -3 -17 -8 -5 -10 -4 -5 3 4 7 2 12 -5 12 -6 0 -9 8 -6
20 3 11 1 18 -3 15 -5 -3 -11 -1 -15 5 -3 5 -1 10 4 10 6 0 11 5 11 11 0 5 -5
7 -12 3 -7 -4 -8 -3 -4 5 4 6 12 9 17 6 5 -4 8 5 7 19 -1 13 -5 23 -9 20 -4
-2 -10 0 -14 6 -3 5 2 10 11 10 16 0 16 1 0 19 -12 13 -14 21 -6 26 6 4 9 13
6 20 -3 8 0 16 7 19 7 2 5 5 -5 5 -17 1 -19 16 -5 38 6 9 3 11 -10 7 -17 -5
-17 -4 1 10 12 9 16 21 12 32 -4 10 -1 21 6 26 10 6 9 8 -2 8 -9 0 -22 -6 -30
-13 -12 -10 -12 -9 -1 5 7 9 11 27 9 40 -2 17 2 23 15 22 23 -2 22 19 -3 41
-15 14 -17 21 -8 26 9 6 9 11 0 22 -10 12 -9 16 2 20 13 5 14 12 1 53 -7 25
-11 53 -8 62 5 11 3 13 -7 7 -10 -6 -12 -4 -7 8 4 10 2 17 -5 17 -6 0 -3 9 7
20 14 15 15 23 6 33 -6 8 -8 16 -5 19 3 3 7 24 9 46 2 28 -1 42 -11 46 -24 9
-16 28 8 21 23 -7 23 -7 3 8 -11 9 -17 18 -13 22 3 4 0 25 -8 48 -11 31 -12
43 -3 51 9 8 10 8 5 -1 -4 -7 -2 -13 3 -13 14 0 14 6 1 31 -8 14 -7 25 3 40 8
11 12 29 10 40 -3 12 -9 16 -12 10 -4 -6 -11 -3 -19 9 -10 17 -9 19 6 14 15
-4 15 -4 1 7 -15 11 -14 14 2 30 17 17 16 65 -1 54 -4 -2 -7 20 -6 50 0 30 5
55 9 55 5 0 6 4 2 9 -3 5 0 13 5 16 8 5 7 12 -3 23 -19 23 -32 76 -16 66 8 -5
11 -1 7 13 -3 11 -1 27 4 36 7 13 5 15 -8 10 -13 -5 -15 -2 -10 14 4 13 1 25
-9 33 -14 12 -14 15 2 32 14 16 15 21 3 28 -8 5 -18 6 -24 3 -5 -3 -6 -1 -3 5
4 5 15 8 25 5 16 -4 18 1 17 29 -1 19 -7 32 -14 31 -6 -2 -11 2 -11 7 0 6 4
10 8 10 15 0 35 54 22 58 -12 4 -35 51 -31 66 1 5 -4 13 -11 17 -10 7 -9 9 4
9 9 0 24 -10 32 -22 9 -12 16 -18 16 -13 0 6 -7 19 -15 29 -8 11 -12 29 -9 42
7 26 -14 43 -27 23 -5 -8 -7 -22 -5 -32 4 -16 2 -16 -12 -5 -12 10 -14 10 -8
0 5 -8 1 -12 -11 -13 -11 0 -13 -3 -5 -6 10 -4 10 -8 1 -19 -6 -8 -16 -11 -22
-7 -6 4 -7 1 -2 -7 4 -7 2 -16 -6 -21 -9 -7 -5 -7 14 -3 19 4 27 2 27 -8 0 -7
-10 -15 -22 -15 -13 -1 -28 -10 -35 -19 -8 -11 -13 -13 -13 -5 0 7 -5 9 -11 6
-6 -4 -8 -14 -4 -22 5 -13 3 -14 -10 -3 -12 10 -19 10 -27 2 -9 -9 -9 -12 1
-12 8 0 11 -6 7 -16 -4 -11 -1 -14 12 -10 14 5 17 -1 19 -29 2 -19 -2 -35 -7
-35 -6 0 -10 5 -10 11 0 5 -4 8 -9 5 -5 -3 -15 2 -22 11 -12 14 -11 15 10 8
23 -7 23 -7 4 13 -36 40 -43 51 -43 68 0 4 -7 1 -15 -6 -8 -7 -22 -9 -31 -6
-14 5 -15 4 -5 -8 7 -8 20 -12 29 -9 13 5 14 3 5 -7 -9 -9 -7 -20 8 -47 14
-25 17 -39 9 -51 -8 -15 -10 -15 -10 3 -1 11 -4 14 -7 7 -2 -6 -9 -9 -14 -6
-6 3 -5 11 2 20 10 12 9 17 0 27 -10 9 -11 8 -6 -5 4 -10 2 -19 -4 -19 -26 -3
-30 -4 -37 -12 -4 -4 2 -7 14 -7 12 0 22 -3 23 -7 0 -5 2 -16 4 -26 2 -12 -1
-17 -10 -13 -18 7 -27 -5 -15 -20 18 -21 20 -55 4 -61 -21 -8 -29 4 -15 21 9
11 8 15 -3 19 -14 6 -15 -4 -7 -55 0 -5 4 -7 9 -7 19 3 33 -2 28 -10 -3 -5
-16 -7 -29 -4 -21 4 -21 4 -2 -9 27 -17 38 -16 52 2 10 12 11 9 4 -17 -5 -17
-7 -34 -3 -37 3 -3 0 -6 -6 -6 -7 0 -12 -7 -12 -15 0 -10 -6 -12 -17 -8 -15 5
-16 4 -7 -8 6 -8 14 -22 17 -32 5 -14 3 -16 -12 -8 -20 11 -31 5 -31 -17 0
-12 2 -12 17 -1 15 13 15 12 4 -9 -8 -14 -18 -21 -27 -18 -12 5 -12 2 -3 -17
7 -12 13 -24 13 -27 1 -2 9 -3 18 -2 12 2 16 -1 12 -12 -3 -8 0 -24 6 -36 9
-17 9 -25 -1 -34 -9 -8 -10 -8 -5 1 10 18 -4 42 -25 40 -24 -2 -25 -17 -1 -17
14 0 15 -2 2 -10 -13 -8 -13 -11 -1 -19 11 -7 9 -10 -9 -16 -21 -7 -21 -8 -6
-17 9 -5 14 -13 11 -19 -4 -5 -1 -9 5 -9 6 0 8 -5 5 -10 -4 -6 -11 -8 -16 -4
-9 5 -6 -24 7 -65 3 -8 -1 -11 -11 -8 -8 4 -17 1 -21 -5 -4 -7 -3 -8 5 -4 9 6
10 0 5 -21 -4 -15 -11 -32 -15 -37 -13 -15 -11 -26 5 -26 23 0 28 -17 10 -34
-13 -13 -14 -20 -4 -31 9 -11 9 -15 1 -15 -9 0 -9 -5 -1 -20 6 -11 7 -20 3
-19 -19 3 -23 -2 -13 -21 6 -11 7 -20 2 -20 -8 0 -9 -30 -1 -55 2 -5 -2 -20
-9 -32 -7 -13 -9 -23 -4 -23 12 0 10 -53 -3 -62 -5 -4 -1 -8 10 -8 16 0 17 -2
6 -9 -12 -8 -12 -12 -2 -24 8 -11 8 -16 1 -19 -6 -2 -11 -30 -11 -68 -1 -36
-5 -70 -10 -76 -6 -7 -4 -27 6 -53 8 -22 10 -41 6 -41 -5 0 -7 -10 -7 -23 1
-12 -3 -28 -8 -36 -8 -11 -8 -13 2 -7 10 6 12 1 7 -26 -9 -55 -13 -128 -5
-128 8 0 6 -37 -2 -45 -3 -3 -2 -21 2 -40 4 -19 5 -33 1 -31 -3 2 -7 -204 -9
-457 -3 -541 -6 -664 -15 -673 -3 -4 -3 -14 2 -23 4 -9 6 -34 5 -56 -1 -35 -8
-196 -19 -465 -2 -41 -4 -75 -5 -75 -1 0 -4 -18 -6 -40 -7 -81 -25 -209 -32
-219 -3 -6 -7 -15 -8 -21 -1 -5 -7 -30 -14 -55 -7 -25 -14 -52 -16 -60 -1 -8
-15 -46 -29 -85 -14 -38 -33 -90 -42 -114 -20 -56 -91 -201 -107 -221 -7 -8
-24 -35 -37 -60 -13 -25 -36 -61 -51 -81 -16 -20 -28 -40 -28 -44 0 -3 -6 -12
-12 -19 -7 -8 -31 -40 -53 -71 -22 -32 -51 -71 -65 -86 -14 -15 -45 -51 -70
-80 -25 -28 -65 -72 -90 -97 -25 -25 -44 -49 -43 -54 2 -4 0 -7 -5 -6 -7 3
-49 -32 -97 -79 -13 -12 -26 -19 -29 -16 -3 4 -6 -1 -6 -10 0 -8 -9 -18 -19
-22 -11 -3 -22 -13 -25 -21 -3 -8 -10 -13 -15 -10 -5 3 -23 -8 -41 -24 -18
-17 -38 -30 -46 -30 -8 0 -14 -4 -14 -10 0 -5 -6 -10 -13 -10 -7 0 -37 -16
-67 -35 -30 -20 -71 -43 -90 -51 -19 -9 -42 -20 -50 -25 -8 -5 -34 -18 -57
-29 -24 -11 -43 -24 -43 -30 0 -5 -7 -10 -15 -10 -15 0 -55 -19 -65 -31 -3 -3
-12 -6 -20 -7 -28 -2 -48 -8 -61 -19 -8 -6 -39 -18 -69 -28 -30 -10 -59 -20
-65 -24 -5 -3 -19 -7 -30 -9 -11 -1 -38 -8 -60 -14 -22 -6 -44 -11 -49 -9 -4
1 -13 -2 -20 -8 -6 -5 -30 -12 -53 -16 -24 -4 -45 -11 -49 -16 -3 -5 -10 -7
-15 -3 -6 3 -31 1 -57 -5 -75 -17 -162 -27 -312 -36 -47 -2 -87 -5 -90 -5 -29
-5 -372 0 -379 5 -6 3 -11 2 -11 -2 0 -10 -133 -8 -150 2 -9 6 -11 4 -5 -5 6
-10 2 -11 -18 -7 -20 6 -169 8 -262 5 -133 -5 -808 20 -915 33 -132 17 -230
38 -230 51 0 4 98 9 218 9 119 1 613 5 1097 9 l880 7 120 26 c319 67 546 153
776 292 168 101 255 166 393 291 220 198 251 239 385 494 45 85 78 142 75 125
-4 -16 -10 -32 -14 -35 -3 -3 -12 -21 -19 -40 -7 -19 -24 -59 -38 -89 -60
-133 25 -26 111 140 153 296 241 555 262 769 3 41 8 89 10 105 2 17 7 59 10
95 9 79 9 654 0 1695 -13 1661 -16 2669 -17 6060 -1 3892 -1 3866 -63 4147 -8
37 -20 76 -25 87 -6 11 -11 28 -11 37 0 10 -8 36 -18 58 -11 23 -29 73 -42
111 -21 63 -149 335 -170 360 -5 6 -24 39 -43 74 -19 35 -54 91 -78 124 -48
66 -267 291 -338 347 -25 19 -61 49 -80 66 -39 33 -127 96 -151 107 -8 4 -28
16 -45 26 -322 199 -526 275 -918 341 -308 52 16 49 -6197 48 -3176 -1 -5804
-3 -5840 -5z m6130 -553 c572 -29 1207 -142 1650 -295 41 -14 102 -32 135 -41
356 -90 1040 -410 1411 -661 39 -26 143 -96 230 -154 284 -189 545 -420 774
-683 52 -61 130 -148 174 -195 177 -193 342 -435 522 -763 23 -42 54 -112 70
-155 15 -43 31 -83 35 -88 9 -12 24 -53 80 -215 115 -328 192 -622 224 -855
17 -119 17 -397 -1 -795 -13 -311 -68 -610 -170 -930 -19 -58 -34 -109 -34
-113 0 -8 -44 -122 -127 -332 -72 -180 -142 -317 -268 -527 -27 -46 -52 -87
-54 -92 -2 -5 -10 -16 -17 -25 -7 -9 -30 -39 -51 -67 -107 -146 -285 -365
-507 -623 -99 -115 -339 -306 -731 -581 -93 -66 -175 -124 -182 -130 -6 -5
-29 -19 -50 -31 -21 -11 -61 -34 -90 -50 -261 -148 -618 -314 -877 -406 -39
-14 -84 -31 -101 -38 -16 -7 -41 -16 -55 -20 -14 -3 -34 -10 -45 -15 -35 -16
-347 -119 -425 -140 -67 -18 -110 -29 -300 -74 -281 -68 -642 -128 -930 -157
-58 -5 -116 -12 -130 -14 -114 -17 -694 -24 -910 -11 -158 10 -532 52 -687 77
-251 40 -618 121 -803 176 -147 43 -274 83 -295 93 -11 5 -38 14 -60 21 -22 6
-44 15 -50 19 -5 4 -28 13 -50 20 -22 7 -134 51 -250 98 -115 46 -228 91 -250
99 -70 25 -334 163 -505 263 -316 185 -302 176 -789 559 -200 158 -479 459
-621 671 -8 12 -43 57 -77 100 -73 91 -193 266 -249 363 -21 37 -49 85 -61
105 -40 67 -49 85 -155 297 -98 195 -178 397 -178 451 0 13 -4 25 -9 28 -5 3
-11 20 -14 38 -3 18 -12 65 -21 103 -54 240 -67 301 -85 400 -43 229 -52 350
-56 685 -4 373 19 622 80 880 72 308 120 478 166 595 62 154 102 236 201 405
12 19 46 78 76 130 87 151 328 485 424 587 26 28 48 56 48 60 0 24 308 352
415 443 273 231 358 295 590 452 177 118 336 215 515 313 58 32 130 72 160 91
138 82 546 245 760 304 63 18 219 63 347 101 325 96 565 149 888 194 396 55
921 76 1345 55z m-2130 -146 c23 -6 21 -8 -20 -22 -59 -20 -265 -22 -2380 -27
-1447 -3 -1671 -5 -1780 -19 -141 -18 -262 -43 -365 -75 -38 -12 -101 -31
-139 -42 -148 -42 -382 -169 -521 -282 -55 -45 -105 -86 -111 -92 -51 -47 -74
-63 -74 -52 0 43 140 178 295 283 95 65 144 89 292 145 76 29 167 63 203 77
97 36 224 68 325 82 50 6 101 14 115 17 27 7 3315 20 3830 15 168 -1 316 -5
330 -8z m7780 -13 c124 -15 186 -27 295 -57 265 -75 494 -160 533 -200 12 -13
22 -25 22 -28 0 -3 -35 11 -77 31 -94 43 -172 69 -363 121 -232 64 -291 75
-520 98 -36 3 -472 4 -970 3 -1427 -6 -2933 0 -3052 11 -129 13 -161 22 -103
31 74 12 4131 3 4235 -10z m-11738 -570 c105 -39 575 -242 858 -369 85 -38
182 -79 215 -91 67 -25 409 -194 440 -218 l20 -15 -20 -11 c-11 -7 -101 -91
-200 -188 -226 -220 -252 -241 -291 -230 -57 17 -187 76 -573 257 -62 30 -119
54 -127 54 -7 0 -16 5 -19 10 -12 20 -25 9 -25 -21 0 -17 -9 -51 -19 -77 -11
-26 -30 -83 -44 -127 -29 -93 -58 -168 -94 -244 -33 -71 -82 -189 -93 -224
-11 -35 -69 -137 -78 -137 -4 0 -23 4 -42 10 -19 5 -62 12 -95 16 -33 3 -65 7
-72 9 -10 3 -104 9 -290 19 -24 2 -43 0 -43 -4 0 -3 -31 -7 -70 -8 -42 -1 -70
2 -70 8 0 6 23 69 50 141 28 71 66 176 84 232 39 119 199 545 258 685 68 163
87 211 149 371 60 155 76 191 84 191 3 0 51 -17 107 -39z m11481 -762 c245
-37 414 -139 716 -434 184 -180 296 -321 370 -465 48 -93 79 -172 49 -124 -36
57 -80 102 -152 156 -89 67 -137 94 -181 103 -53 9 -218 6 -295 -6 -41 -6 -84
-12 -95 -14 -11 -1 -30 -7 -42 -13 -12 -7 -32 -12 -45 -12 -13 0 -36 -7 -52
-15 -15 -8 -35 -15 -44 -15 -16 0 -75 -25 -147 -62 -119 -62 -150 -79 -164
-92 -9 -7 -40 -26 -68 -41 -29 -15 -53 -31 -53 -35 0 -4 -13 -13 -28 -19 -15
-7 -40 -23 -55 -36 -14 -14 -31 -25 -37 -25 -5 0 -10 -4 -10 -9 0 -15 -73 -28
-103 -18 -15 5 -27 12 -27 17 0 5 -8 11 -17 15 -19 6 -59 56 -168 210 -158
223 -241 326 -382 472 -49 51 -87 97 -83 102 13 22 232 157 350 216 134 68
323 132 435 148 64 9 259 7 328 -4z m-10699 -703 c-17 -27 -77 -76 -92 -76 -5
0 -37 -22 -71 -49 -34 -28 -82 -63 -107 -78 -24 -15 -44 -32 -44 -37 0 -5 -8
-14 -17 -21 -15 -11 -15 -17 -5 -41 11 -23 11 -30 -2 -42 -14 -14 -19 -14 -51
4 -34 18 -35 20 -35 81 0 77 12 105 59 136 68 45 318 146 364 147 16 0 16 -2
1 -24z m-1079 -191 c188 -16 230 -23 330 -50 127 -35 355 -138 355 -161 0 -10
-6 -11 -22 -5 -13 5 -97 33 -188 61 -91 29 -183 58 -205 66 -42 14 -213 41
-350 54 -137 13 -493 1 -598 -20 -26 -6 -72 -10 -101 -10 -29 0 -56 -3 -60 -7
-6 -7 -13 -8 -73 -14 -18 -2 -35 -9 -37 -16 -3 -7 -13 -13 -21 -13 -9 0 -13
-4 -10 -10 3 -5 1 -10 -5 -10 -6 0 -10 -8 -9 -17 3 -34 -1 -54 -10 -49 -5 3
-8 23 -7 43 1 28 -4 44 -21 59 -12 12 -20 24 -16 27 3 4 1 7 -5 7 -14 0 -16
36 -3 45 8 4 209 26 366 39 97 8 512 -4 690 -19z m-979 -336 c-7 -65 -16 -58
-16 12 1 48 3 60 11 47 5 -10 8 -36 5 -59z m34 -134 c0 -8 -2 -15 -4 -15 -2 0
-6 7 -10 15 -3 8 -1 15 4 15 6 0 10 -7 10 -15z m0 -41 c0 -8 -5 -12 -10 -9 -6
4 -8 11 -5 16 9 14 15 11 15 -7z m630 -189 c14 -16 18 -15 -72 -20 -34 -2 -48
1 -48 10 0 17 16 23 66 24 26 1 46 -5 54 -14z m-550 -173 c0 -15 -2 -15 -10
-2 -13 20 -13 33 0 25 6 -3 10 -14 10 -23z m373 -1445 c-11 -7 -51 -39 -88
-72 -37 -33 -76 -65 -87 -71 -10 -5 -16 -13 -13 -16 4 -3 -3 -9 -14 -13 -21
-6 -145 -124 -231 -220 -49 -54 -80 -125 -54 -125 12 0 19 -19 15 -42 0 -5 3
-8 9 -8 5 0 10 -7 10 -15 0 -22 -26 -18 -43 5 -8 11 -16 18 -19 15 -3 -3 -13
6 -22 20 -9 14 -23 25 -31 25 -27 0 -16 25 42 96 85 104 218 234 307 299 94
69 205 135 226 135 10 -1 8 -5 -7 -13z m13271 -1028 c213 -31 428 -82 448
-106 9 -11 7 -17 -9 -28 -20 -14 -42 -83 -63 -205 -13 -74 -56 -230 -66 -239
-4 -3 -4 5 0 19 16 62 25 121 20 137 -5 15 -4 15 5 3 12 -18 14 -13 30 74 15
80 14 109 -1 100 -7 -4 -10 -3 -5 1 4 5 0 16 -9 26 -8 9 -16 24 -18 31 -6 45
-72 91 -146 102 -25 4 -67 14 -95 21 -27 8 -131 25 -230 40 -99 14 -189 30
-200 35 -40 18 196 10 339 -11z m-12319 -301 c4 -69 3 -75 -5 -40 -15 70 -21
160 -9 140 5 -10 12 -55 14 -100z m13702 -250 c-3 -8 -6 -5 -6 6 -1 11 2 17 5
13 3 -3 4 -12 1 -19z m-14807 -130 c-18 -51 -31 -250 -18 -263 3 -3 0 -34 -8
-68 -7 -34 -11 -83 -9 -109 1 -27 -1 -48 -6 -48 -5 0 -4 -12 1 -26 6 -14 7
-30 4 -36 -4 -6 -1 -14 5 -18 9 -5 8 -12 -6 -25 -17 -18 -17 -19 0 -12 16 6
18 3 12 -21 -4 -20 0 -35 15 -52 11 -12 20 -29 20 -37 0 -8 4 -12 9 -8 6 3 8
-10 5 -30 -3 -28 -1 -35 13 -36 10 0 13 -3 6 -5 -9 -4 -9 -13 -2 -30 5 -14 9
-39 9 -55 0 -26 2 -29 19 -19 11 5 26 10 33 9 9 0 10 -2 1 -5 -7 -3 -9 -12 -6
-20 4 -12 8 -12 20 -2 12 10 14 9 11 -7 -1 -10 3 -20 10 -22 6 -3 12 0 12 7 0
6 5 8 11 5 6 -5 4 -12 -8 -22 -14 -11 -14 -14 -2 -10 13 4 14 -1 8 -36 -13
-75 -85 -234 -204 -452 -33 -60 -69 -127 -80 -148 -11 -22 -35 -52 -53 -68
-32 -29 -35 -29 -50 -12 -10 10 -30 18 -47 18 -16 0 -36 4 -44 10 -12 8 -13 6
-8 -8 5 -15 4 -16 -13 -7 -25 13 -33 13 -24 -2 6 -10 3 -9 -8 0 -14 11 -21 10
-44 -5 -27 -17 -28 -17 -21 0 6 17 4 16 -22 -2 -32 -23 -56 -28 -45 -8 6 10 4
10 -7 0 -7 -7 -22 -13 -32 -13 -11 0 -28 -10 -39 -22 -10 -12 -26 -23 -36 -24
-9 -2 -22 -10 -28 -18 -6 -9 -14 -13 -17 -9 -4 3 -7 1 -7 -6 0 -6 -6 -11 -12
-10 -7 2 -32 -15 -54 -37 -42 -39 -165 -92 -193 -83 -12 4 100 235 262 544 67
127 122 248 159 349 16 44 66 152 111 240 132 262 180 359 296 599 60 125 112
227 114 227 3 0 -3 -24 -13 -52z m14150 -214 c114 -95 216 -191 210 -196 -12
-11 -212 -138 -280 -178 -41 -25 -122 -77 -179 -118 -57 -40 -105 -71 -108
-68 -3 2 5 13 16 23 12 9 21 22 21 28 1 17 220 235 220 218 0 -4 13 8 28 25
16 18 34 32 40 32 7 0 12 9 12 21 0 13 4 18 12 13 8 -5 9 -2 5 9 -4 11 -1 17
9 17 10 0 13 8 10 27 -3 14 -9 29 -13 32 -4 3 -8 12 -9 19 -1 6 -2 18 -2 25
-1 7 -18 30 -37 52 -20 22 -42 52 -51 68 -8 15 -19 27 -24 27 -5 0 -14 10 -21
22 -11 20 -10 20 22 -3 19 -13 72 -56 119 -95z m-14080 -614 c0 -5 -2 -10 -4
-10 -3 0 -8 5 -11 10 -3 6 -1 10 4 10 6 0 11 -4 11 -10z m451 -223 c-10 -9
-11 -8 -5 6 3 10 9 15 12 12 3 -3 0 -11 -7 -18z m-28 -64 c-10 -16 -27 -48
-39 -73 -50 -106 -63 -136 -69 -156 -3 -12 -17 -34 -31 -50 l-25 -29 15 41
c12 36 60 130 135 266 14 26 27 43 29 38 2 -6 -5 -22 -15 -37z m-375 -158 c-6
-14 -13 -23 -15 -21 -5 5 15 46 22 46 3 0 -1 -11 -7 -25z m882 -57 c-30 -28
-82 -72 -115 -98 -33 -27 -73 -65 -90 -86 -16 -21 -38 -47 -48 -57 -15 -15
-16 -24 -8 -53 5 -20 7 -42 4 -50 -3 -8 0 -14 7 -14 7 0 9 -8 5 -20 -5 -15 -3
-18 8 -14 10 4 13 -3 12 -25 -1 -17 4 -32 12 -35 7 -3 13 -12 13 -21 0 -8 4
-15 9 -15 5 0 15 -16 21 -35 6 -19 18 -35 26 -35 8 0 14 -7 14 -15 0 -8 7 -15
15 -15 9 0 18 -6 21 -13 3 -10 21 -12 64 -9 41 3 60 1 60 -7 0 -6 -8 -15 -17
-18 -10 -4 -20 -10 -23 -14 -11 -15 -200 -98 -320 -141 -214 -76 -261 -92
-355 -118 -209 -58 -567 -136 -731 -159 -36 -6 -69 -12 -72 -15 -3 -3 6 -36
20 -73 15 -38 45 -120 68 -183 78 -212 267 -604 455 -945 15 -27 41 -75 58
-105 17 -30 67 -118 112 -195 45 -77 103 -178 130 -225 116 -206 330 -514 435
-625 31 -33 103 -116 160 -185 57 -69 126 -152 155 -185 28 -33 64 -78 80
-100 46 -64 272 -291 371 -374 137 -115 379 -327 460 -404 40 -38 124 -110
187 -160 63 -51 170 -139 238 -196 250 -209 343 -287 398 -335 48 -41 767
-525 886 -596 22 -13 126 -78 230 -145 382 -243 499 -315 514 -315 3 0 16 16
29 35 46 72 246 288 522 566 157 158 352 357 434 443 82 86 151 154 154 151 2
-2 -12 -19 -32 -38 -20 -19 -36 -38 -36 -41 0 -4 -6 -13 -12 -20 -38 -38 -229
-278 -268 -336 -8 -13 -24 -35 -36 -49 -32 -39 -46 -70 -38 -83 4 -7 3 -8 -4
-4 -8 4 -13 -1 -13 -13 -1 -12 -2 -27 -3 -33 -1 -7 4 -12 10 -11 7 1 10 -6 7
-17 -4 -15 -1 -18 16 -15 12 2 21 -1 21 -6 0 -6 4 -8 9 -4 6 3 14 -2 19 -11 5
-9 15 -14 21 -10 6 4 8 13 5 19 -4 7 4 2 18 -10 13 -13 32 -23 40 -23 9 0 24
-7 32 -16 11 -10 16 -11 16 -3 0 8 6 6 18 -4 10 -10 22 -14 25 -10 4 3 7 -2 7
-13 0 -15 2 -16 9 -5 5 8 14 10 21 6 9 -6 11 -4 6 4 -5 8 -3 11 5 10 23 -4 72
13 121 42 25 15 48 25 51 23 3 -3 20 9 38 25 18 17 48 38 66 46 18 9 35 20 38
25 3 5 12 7 19 4 8 -3 25 6 39 20 15 14 32 26 38 26 7 0 -73 -87 -178 -193
-105 -105 -206 -210 -224 -232 -19 -22 -36 -42 -39 -45 -13 -13 -98 -119 -125
-155 -44 -60 -280 -341 -345 -411 -58 -63 -276 -349 -312 -411 l-21 -34 -26
24 c-79 74 -301 229 -491 342 -253 151 -302 182 -475 305 -99 70 -252 176
-340 235 -88 60 -225 156 -305 214 -80 57 -196 140 -258 183 -212 148 -497
364 -727 553 -126 103 -288 232 -360 285 -175 132 -319 265 -717 666 -375 378
-524 545 -657 734 -50 70 -141 190 -202 266 -128 161 -272 371 -456 669 -98
158 -191 332 -374 700 -300 601 -325 656 -454 975 -119 298 -151 388 -138 401
8 8 408 90 508 103 144 20 388 77 585 136 52 16 147 43 210 59 63 16 147 41
185 56 39 15 104 39 145 54 87 33 250 101 265 112 6 4 53 21 105 39 53 17 158
64 235 105 77 40 145 74 150 74 6 0 -15 -23 -45 -51z m-916 -10 c-9 -18 -19
-35 -22 -38 -8 -9 10 45 20 58 18 22 19 13 2 -20z m14733 -755 c1 -370 -1
-595 -7 -598 -7 -4 -9 246 -8 687 1 381 4 650 8 598 3 -52 6 -361 7 -687z
m-14774 671 c-10 -19 -19 -31 -21 -24 -4 10 24 60 33 60 3 0 -3 -16 -12 -36z
m-45 -83 c-7 -12 -16 -21 -20 -21 -5 0 -8 -10 -8 -23 0 -13 -7 -32 -16 -43
-14 -17 -15 -17 -10 -1 3 10 6 26 6 36 0 9 12 31 27 48 30 35 42 37 21 4z
m-77 -114 c-10 -9 -11 -8 -5 6 3 10 9 15 12 12 3 -3 0 -11 -7 -18z m14427
-1509 c-4 -1778 -5 -1965 -19 -1951 -5 5 -14 58 -19 117 -12 140 -29 227 -48
249 -8 9 -12 20 -9 24 4 3 7 0 7 -7 0 -7 3 -11 6 -7 3 3 -3 19 -14 35 -11 15
-24 41 -28 57 l-7 29 -9 -24 c-7 -20 -11 -22 -19 -10 -8 13 -10 13 -19 0 -8
-13 -10 -12 -10 3 0 10 -12 22 -26 27 -14 6 -23 14 -19 19 3 5 1 12 -4 15 -9
6 -22 44 -57 166 -9 30 -24 75 -34 100 -11 25 -31 76 -45 113 -14 37 -39 90
-55 118 -17 27 -30 53 -30 56 0 3 -15 26 -33 52 -103 143 -109 154 -117 210
-4 31 -6 59 -4 63 3 4 9 404 15 890 6 486 14 906 17 933 l8 50 22 -67 c12 -37
22 -78 22 -90 0 -31 34 -53 50 -32 7 8 18 14 24 13 22 -3 35 1 48 14 14 14 70
51 78 52 21 3 50 18 50 25 0 5 18 15 40 21 22 7 40 16 40 21 0 5 13 14 29 19
16 6 32 17 35 25 3 9 10 12 16 9 5 -3 10 1 10 10 0 8 9 23 20 32 11 10 20 22
20 28 0 8 59 73 68 74 2 1 2 -666 0 -1481z m-846 707 c3 -14 1 -25 -3 -25 -5
0 -9 11 -9 25 0 14 2 25 4 25 2 0 6 -11 8 -25z m11 -202 c6 -152 -8 -831 -17
-840 -7 -7 -62 19 -124 59 -63 41 -100 47 -46 7 40 -30 374 -369 374 -380 0
-5 20 -40 45 -79 25 -39 45 -75 45 -80 0 -6 4 -10 9 -10 5 0 16 -17 25 -37 10
-21 31 -65 48 -98 16 -33 33 -76 36 -95 5 -33 4 -34 -13 -20 -17 14 -17 13
-11 -10 l7 -25 -20 25 c-11 14 -18 27 -15 29 2 2 -12 26 -31 53 -19 26 -35 51
-35 55 0 3 -19 24 -41 47 -37 36 -43 38 -54 23 -6 -9 -15 -14 -18 -10 -4 3
-13 0 -21 -6 -12 -11 -16 -7 -22 23 -4 26 -11 36 -25 36 -11 0 -19 4 -19 10 0
5 -6 7 -14 4 -9 -3 -17 3 -22 18 l-8 23 -7 -25 c-7 -24 -7 -24 -14 -4 -5 16
-13 20 -28 17 -18 -4 -19 -3 -7 6 13 9 12 11 -5 12 -18 1 -18 2 -2 6 17 4 17
6 -1 22 -11 9 -29 44 -40 78 -23 71 -95 218 -121 248 -10 11 -25 33 -35 48 -9
15 -21 25 -26 22 -6 -4 -10 3 -10 14 0 25 -15 28 -16 4 -1 -10 -4 -30 -7 -45
-3 -15 -2 -28 3 -30 5 -2 11 -14 14 -28 2 -14 7 -32 10 -40 3 -8 1 -31 -3 -50
-5 -19 -9 -27 -10 -18 -1 19 -49 48 -68 41 -7 -3 -17 6 -22 19 -10 28 -190
212 -268 276 -29 24 -86 59 -125 79 -40 19 -78 43 -85 52 -9 12 -12 13 -13 2
0 -22 -40 35 -40 58 0 12 -5 21 -11 21 -6 0 -9 6 -6 14 4 10 -12 19 -56 32
-35 10 -54 19 -44 22 23 5 164 -24 242 -50 155 -51 407 -201 413 -246 2 -12
10 -22 19 -22 9 0 13 6 9 15 -3 8 -1 15 5 15 5 0 26 -7 46 -15 19 -8 36 -15
37 -15 0 0 1 48 1 108 2 262 9 580 15 617 4 22 8 32 9 23 0 -10 5 -18 10 -18
12 0 22 -27 27 -80 3 -25 8 -56 11 -70 3 -14 8 -46 10 -72 5 -46 15 -59 28
-38 4 6 1 18 -6 26 -10 12 -9 13 5 8 13 -5 16 0 16 28 0 19 4 38 9 44 7 7 15
41 37 147 1 4 2 25 3 48 0 22 5 38 10 35 4 -3 8 5 8 17 0 40 15 87 28 87 9 0
14 -46 18 -167z m-12156 52 c-25 -19 -51 -35 -57 -35 -6 0 -8 -5 -5 -10 3 -6
-19 -34 -49 -64 -38 -37 -54 -59 -50 -70 4 -10 1 -16 -7 -16 -7 0 -3 -9 11
-22 26 -24 100 -29 138 -9 14 7 22 8 22 2 0 -7 9 -7 26 0 50 18 35 1 -43 -49
-102 -65 -116 -81 -115 -134 2 -111 -47 -237 -115 -299 -98 -89 -238 -139
-388 -139 -176 0 -299 36 -376 110 -68 65 -76 118 -25 176 l23 28 96 -32 c140
-47 191 -49 316 -17 112 28 179 57 188 81 8 22 -26 90 -67 133 -104 107 -270
117 -451 26 -57 -29 -93 -59 -179 -148 -60 -62 -118 -124 -130 -139 -27 -34
-42 -35 -74 -3 -21 21 -29 23 -51 15 -44 -17 -52 -12 -75 41 l-22 52 27 81
c35 105 73 164 152 235 173 156 389 239 597 229 116 -5 157 -26 253 -125 l72
-75 98 58 c102 60 281 153 297 154 5 0 -12 -16 -37 -35z m-2478 -260 c0 -5
-16 23 -35 64 -19 40 -34 76 -33 80 1 9 68 -133 68 -144z m15934 100 c-7 -21
-13 -19 -13 6 0 11 4 18 10 14 5 -3 7 -12 3 -20z m-15904 -170 c0 -5 -6 1 -14
15 -8 14 -14 30 -14 35 0 6 6 -1 14 -15 8 -14 14 -29 14 -35z m15898 -7 c-3
-7 -5 -2 -5 12 0 14 2 19 5 13 2 -7 2 -19 0 -25z m-15883 -24 c3 -8 2 -12 -4
-9 -6 3 -10 10 -10 16 0 14 7 11 14 -7z m26 -59 c0 -5 -5 -3 -10 5 -5 8 -10
20 -10 25 0 6 5 3 10 -5 5 -8 10 -19 10 -25z m15857 -187 c-3 -8 -6 -5 -6 6
-1 11 2 17 5 13 3 -3 4 -12 1 -19z m568 -58 c3 -5 1 -10 -4 -10 -6 0 -11 5
-11 10 0 6 2 10 4 10 3 0 8 -4 11 -10z m-25 -75 c0 -8 -4 -15 -10 -15 -5 0
-10 5 -10 11 0 5 -5 7 -12 3 -7 -4 -8 -3 -4 4 10 17 36 15 36 -3z m-2572 -35
c32 -16 102 -69 157 -118 77 -67 113 -109 157 -177 93 -146 110 -198 114 -345
2 -79 0 -116 -5 -100 -6 17 -9 19 -10 8 -1 -10 -7 -18 -14 -18 -7 0 -18 -12
-24 -27 l-11 -28 -1 28 c-1 15 -4 27 -8 27 -16 -1 -40 -26 -36 -37 3 -7 0 -13
-5 -13 -5 0 -8 18 -7 40 1 23 -2 37 -7 34 -5 -3 -7 -12 -4 -20 3 -8 1 -14 -5
-14 -6 0 -8 -9 -4 -20 4 -11 2 -20 -4 -20 -6 0 -8 -6 -5 -14 3 -9 -3 -20 -15
-28 -12 -7 -21 -22 -22 -33 -1 -12 -6 -5 -13 17 -6 20 -17 43 -24 50 -6 6 -12
25 -12 40 0 18 -5 28 -15 28 -13 0 -36 37 -39 63 -1 4 -6 11 -11 15 -6 4 -19
27 -30 51 -27 61 -126 158 -175 171 -22 6 -45 17 -53 24 -20 20 -76 47 -86 41
-5 -2 -11 2 -15 10 -3 9 -12 12 -23 8 -16 -5 -17 -4 -2 11 14 15 21 15 92 -11
42 -14 79 -25 81 -22 10 9 7 96 -4 154 -12 64 -33 105 -53 105 -21 1 -49 50
-51 91 0 21 -5 39 -10 39 -18 0 2 11 30 16 16 3 31 8 34 10 11 12 84 -8 138
-36z m2583 -8 c-15 -27 -14 -45 2 -39 6 2 11 9 10 15 -2 6 4 9 11 6 12 -5 12
-9 -2 -23 -9 -10 -21 -16 -26 -13 -4 2 -5 -6 -1 -19 7 -24 7 -24 -10 -4 -9 11
-13 14 -9 6 5 -11 3 -13 -9 -8 -19 7 -24 -17 -7 -28 16 -10 12 -45 -5 -45 -8
0 -15 5 -15 11 0 5 5 7 10 4 16 -10 12 11 -5 25 -20 17 -19 23 9 53 28 30 20
44 -12 21 -12 -8 -19 -21 -16 -29 4 -9 0 -15 -9 -15 -21 0 -16 33 6 42 10 4
15 12 12 18 -4 6 5 10 19 10 15 0 31 8 38 20 16 25 23 18 9 -8z m-86 -114 c-5
-18 -4 -19 4 -8 5 8 14 11 18 6 4 -5 3 -10 -3 -13 -6 -2 -8 -18 -6 -36 5 -29
3 -31 -12 -18 -11 9 -16 10 -16 2 0 -7 -5 -9 -10 -6 -7 4 -3 13 9 24 15 13 17
21 9 29 -6 6 -8 18 -5 26 10 24 19 19 12 -6z m-65 -47 c0 -5 -6 -12 -12 -14
-8 -3 -6 -6 5 -6 23 -1 22 -27 -2 -34 -13 -3 -26 3 -38 17 -9 11 -11 15 -3 9
8 -7 21 -13 30 -13 12 0 13 2 1 9 -8 5 -11 16 -8 25 7 17 27 22 27 7z m141
-18 c13 -16 12 -17 -3 -4 -17 13 -22 21 -14 21 2 0 10 -8 17 -17z m-81 -33
c-8 -5 -22 -9 -30 -9 -10 0 -8 3 5 9 27 12 43 12 25 0z m-78 -50 c13 -31 19
-74 10 -65 -7 7 -8 12 -11 39 0 8 -7 21 -14 28 -7 7 -16 22 -20 32 -7 16 -5
17 9 5 9 -7 21 -25 26 -39z m103 30 c3 -5 1 -10 -4 -10 -6 0 -11 5 -11 10 0 6
2 10 4 10 3 0 8 -4 11 -10z m70 -69 c-3 -6 -14 -10 -23 -10 -15 1 -15 2 1 6 9
2 17 9 17 15 0 6 3 9 6 5 3 -3 3 -10 -1 -16z m-35 -31 c0 -5 -2 -10 -4 -10 -3
0 -8 5 -11 10 -3 6 -1 10 4 10 6 0 11 -4 11 -10z m-211 -183 c8 -10 7 -14 -4
-14 -8 0 -15 6 -15 14 0 7 2 13 4 13 2 0 9 -6 15 -13z m41 -27 c0 -5 -4 -10
-10 -10 -5 0 -10 5 -10 10 0 6 5 10 10 10 6 0 10 -4 10 -10z m-353 -32 c-3 -8
-6 -5 -6 6 -1 11 2 17 5 13 3 -3 4 -12 1 -19z m-1677 -193 c0 -8 -4 -15 -10
-15 -5 0 -7 7 -4 15 4 8 8 15 10 15 2 0 4 -7 4 -15z m389 -125 c0 -9 -4 -8 -9
5 -5 11 -9 27 -9 35 0 9 4 8 9 -5 5 -11 9 -27 9 -35z m-144 -30 c-8 -13 8 -13
22 1 27 27 18 -15 -23 -106 -78 -175 -199 -312 -342 -390 -231 -126 -255 -137
-348 -160 -210 -52 -380 -56 -588 -14 -141 28 -150 31 -352 129 -147 71 -192
99 -243 146 -54 49 -129 138 -155 181 -16 29 21 0 43 -32 13 -19 29 -35 35
-35 7 0 23 -10 35 -22 14 -12 37 -21 55 -21 17 0 33 -4 36 -8 3 -4 18 -9 33
-11 15 -2 37 -12 47 -21 11 -9 26 -17 33 -17 7 0 53 -20 101 -45 49 -25 98
-45 109 -45 10 0 33 -6 50 -14 32 -15 147 -43 222 -55 63 -10 363 1 384 13 6
4 11 2 11 -4 0 -6 -10 -15 -22 -20 -54 -21 44 -9 117 15 178 58 351 165 445
274 25 29 55 64 68 78 12 13 22 30 22 38 0 8 6 15 14 15 7 0 21 11 30 24 8 14
25 27 36 31 13 4 19 12 16 21 -4 10 3 16 23 20 15 3 34 14 42 25 13 19 56 28
44 9z m2040 -10 c3 -5 2 -10 -4 -10 -5 0 -13 5 -16 10 -3 6 -2 10 4 10 5 0 13
-4 16 -10z m-1848 -105 c-2 -14 -7 -6 -16 23 -6 24 -14 51 -17 60 -3 9 4 -1
16 -23 11 -22 19 -49 17 -60z m36 -115 l6 -55 -19 65 c-23 78 -24 91 -6 65 7
-11 16 -45 19 -75z m-15453 34 c0 -8 -4 -12 -10 -9 -5 3 -10 10 -10 16 0 5 5
9 10 9 6 0 10 -7 10 -16z m105 -104 c-3 -5 -13 -10 -21 -10 -8 0 -14 5 -14 10
0 6 9 10 21 10 11 0 17 -4 14 -10z m15362 -22 c-3 -7 -5 -2 -5 12 0 14 2 19 5
13 2 -7 2 -19 0 -25z m-14467 -83 c28 -58 56 -105 61 -105 5 0 13 -8 16 -17 4
-9 14 -24 22 -34 52 -56 61 -68 61 -76 0 -5 18 -26 40 -47 22 -21 40 -46 40
-57 0 -10 3 -19 8 -19 4 0 26 -18 50 -40 43 -41 67 -50 75 -27 4 9 7 9 17 0
11 -10 16 -9 25 4 20 27 25 -155 25 -953 l0 -753 788 -3 c868 -3 830 0 830
-64 0 -33 20 -64 42 -64 6 0 9 -4 6 -9 -5 -8 71 -81 85 -81 3 0 23 -16 43 -35
21 -19 48 -38 62 -41 14 -4 24 -13 24 -24 0 -12 10 -21 30 -25 17 -4 30 -10
30 -13 0 -4 26 -22 59 -40 94 -51 95 -60 9 -64 -123 -7 -2321 -1 -2349 7 -45
11 -42 -12 3 -33 80 -38 184 -42 1263 -41 658 0 1059 -3 1091 -10 28 -5 76
-11 108 -12 67 -3 82 -15 28 -22 -20 -3 -568 -5 -1217 -6 -1286 -1 -1294 -1
-1377 54 -76 50 -69 -76 -71 1402 -2 1153 1 1353 17 1353 2 0 27 -47 56 -105z
m14477 28 c-3 -10 -5 -4 -5 12 0 17 2 24 5 18 2 -7 2 -21 0 -30z m-15437 13
c0 -2 -6 -9 -13 -15 -10 -8 -14 -7 -14 4 0 8 6 15 14 15 7 0 13 -2 13 -4z
m-44 -25 c-4 -5 0 -12 6 -14 8 -3 6 -6 -4 -6 -10 -1 -18 6 -18 14 0 8 5 15 11
15 5 0 8 -4 5 -9z m15494 -37 c0 -8 -4 -12 -10 -9 -5 3 -10 13 -10 21 0 8 5
12 10 9 6 -3 10 -13 10 -21z m-15453 -18 c-3 -8 -2 -16 3 -18 4 -2 2 -9 -5
-15 -11 -10 -13 -8 -11 15 4 32 4 32 12 32 3 0 4 -6 1 -14z m4787 -21 c8 -8
19 -15 25 -15 15 0 14 -23 -1 -39 -11 -10 -9 -11 7 -5 11 4 -6 -17 -38 -45
-101 -92 -201 -241 -253 -376 -24 -61 -27 -85 -28 -190 -1 -113 13 -214 33
-239 4 -6 21 -40 37 -76 46 -106 119 -222 171 -271 140 -134 370 -241 593
-275 199 -30 438 -4 585 65 80 37 253 169 296 224 24 31 41 44 56 43 29 -1 29
-10 -6 -73 -16 -29 -27 -53 -24 -53 3 0 18 9 34 21 20 14 29 16 29 7 0 -7 7
-2 16 10 8 12 22 22 30 22 8 0 13 3 10 8 -5 8 11 31 37 51 18 14 -1 -14 -100
-157 -52 -74 -112 -118 -245 -182 -121 -57 -276 -104 -403 -121 -106 -14 -320
-6 -421 15 -158 34 -336 102 -444 171 -132 84 -380 392 -380 472 0 10 -6 25
-12 32 -10 11 -10 13 0 7 9 -5 12 6 12 43 0 31 -4 51 -11 51 -8 0 -8 4 -2 13
7 7 7 43 1 97 -16 158 -16 273 0 293 11 12 11 17 3 17 -7 0 -9 5 -5 12 4 6 8
24 10 41 1 16 7 34 13 40 6 6 11 18 11 27 0 28 74 159 119 211 93 108 204 164
245 124z m-4686 -9 c-7 -8 -15 -10 -18 -6 -3 4 -14 10 -25 13 -12 3 -4 5 18 6
32 1 36 -1 25 -13z m-133 -72 c-9 -9 -18 -14 -21 -12 -2 3 2 11 11 18 8 7 16
20 16 29 1 13 2 13 6 -1 2 -10 -3 -25 -12 -34z m70 36 c-3 -5 -12 -10 -18 -10
-7 0 -6 4 3 10 19 12 23 12 15 0z m17215 0 c0 -5 -5 -10 -11 -10 -5 0 -7 5 -4
10 3 6 8 10 11 10 2 0 4 -4 4 -10z m-17328 -96 c-9 -15 -10 -15 -17 6 -5 15
-3 25 6 31 17 11 24 -13 11 -37z m212 27 c4 -5 -1 -8 -9 -7 -21 3 -31 16 -12
16 9 0 18 -4 21 -9z m32 -62 c19 -22 19 -22 -3 -8 -13 8 -23 17 -23 21 0 12 6
9 26 -13z m15652 -61 c-1 -24 -8 -54 -15 -68 -8 -16 -9 -26 -2 -28 6 -3 4 -13
-5 -27 -9 -13 -13 -30 -10 -38 15 -41 -134 -355 -218 -457 -30 -36 -68 -86
-85 -111 -89 -129 -321 -304 -568 -427 -357 -178 -678 -232 -1185 -198 -124 8
-250 22 -280 29 -30 8 -72 18 -93 21 -50 9 -322 99 -382 126 -25 11 -48 27
-52 35 -3 8 -9 13 -13 10 -11 -7 -60 15 -60 27 0 4 -8 8 -18 8 -10 0 -29 8
-42 17 -14 10 -30 18 -36 19 -6 1 -28 11 -50 23 -21 12 -30 20 -19 17 19 -6
19 -5 3 7 -10 8 -14 18 -10 22 4 4 -3 3 -15 -4 -22 -11 -26 0 -10 26 5 9 3 11
-6 7 -13 -4 -28 15 -31 39 -1 4 -5 8 -9 10 -35 11 -305 281 -354 355 -43 65
-34 82 14 27 105 -118 136 -147 272 -258 86 -70 242 -169 387 -245 112 -58
331 -129 454 -147 25 -4 49 -11 54 -16 6 -5 23 -9 38 -9 25 0 102 -15 138 -28
8 -3 22 -7 30 -9 23 -5 601 -4 630 2 14 2 39 7 55 10 17 3 55 10 85 16 53 10
168 41 220 59 72 25 264 102 283 114 182 113 379 261 450 339 49 53 99 128
129 192 12 28 25 52 28 55 3 3 18 30 33 60 15 30 47 87 70 126 23 39 43 77 45
84 2 8 12 26 23 41 10 15 19 36 19 47 0 12 5 24 10 27 6 3 15 26 21 51 10 39
29 61 29 33 0 -5 5 -7 10 -4 6 3 10 20 10 36 0 27 2 29 15 15 10 -10 15 -30
13 -58z m-15908 32 c-17 -11 -20 -28 -8 -52 6 -13 5 -16 -7 -12 -8 4 -15 9
-15 13 0 3 -3 16 -6 28 -4 15 -1 22 13 26 31 8 39 7 23 -3z m-50 -10 c0 -5 -4
-10 -10 -10 -5 0 -10 5 -10 10 0 6 5 10 10 10 6 0 10 -4 10 -10z m4985 -14
c16 -16 8 -59 -10 -53 -30 12 -59 -196 -34 -255 24 -60 86 -99 138 -87 53 12
68 -9 66 -94 -1 -37 2 -70 6 -73 8 -4 -22 -38 -73 -83 -15 -13 -37 -24 -50
-25 -22 -1 -23 -5 -24 -71 0 -39 3 -74 7 -80 4 -5 10 -25 14 -42 3 -18 11 -33
16 -33 14 0 -1 -52 -23 -76 -15 -17 -16 -23 -6 -28 7 -3 -7 -4 -32 -2 -26 2
-44 8 -43 14 2 6 -3 9 -11 6 -18 -7 -102 88 -136 156 -15 30 -43 98 -61 150
-31 88 -34 104 -34 215 0 90 5 134 19 175 51 152 150 306 180 281 10 -8 21 -7
42 4 35 18 32 18 49 1z m-4978 -12 c-3 -3 -12 -4 -19 -1 -8 3 -5 6 6 6 11 1
17 -2 13 -5z m37 -79 c-4 -8 -11 -12 -16 -9 -6 4 -5 10 3 15 19 12 19 11 13
-6z m-14 -35 c0 -5 -2 -10 -4 -10 -3 0 -8 5 -11 10 -3 6 -1 10 4 10 6 0 11 -4
11 -10z m13504 -332 c7 12 36 5 36 -8 0 -4 -10 -10 -22 -13 -24 -7 -51 10 -42
25 4 6 9 6 14 -2 5 -8 10 -9 14 -2z m-1214 -110 c8 -10 20 -18 27 -18 7 0 10
-6 7 -14 -3 -7 2 -20 10 -29 9 -9 16 -20 16 -25 0 -6 3 -12 8 -14 4 -2 18 -17
32 -33 13 -17 -1 -5 -32 25 -56 55 -128 152 -128 172 0 6 10 -2 22 -18 13 -16
30 -37 38 -46z m1431 11 c-2 -8 -6 -22 -8 -31 -4 -15 1 -18 27 -18 30 0 92
-36 112 -64 21 -30 -21 -126 -54 -126 -5 0 -21 -9 -36 -20 -45 -33 -188 -38
-299 -11 -121 30 -184 52 -208 72 -11 9 -33 19 -48 23 -16 4 -25 11 -21 17 4
7 -1 9 -15 4 -15 -5 -21 -2 -21 9 0 9 -4 16 -8 16 -5 0 -9 6 -9 13 0 6 -4 24
-7 38 -7 24 -5 26 31 26 86 1 155 12 148 22 -9 15 95 4 113 -12 24 -22 97 -37
133 -27 16 5 55 27 87 50 56 40 91 48 83 19z m-13806 -44 c-2 -19 0 -33 4 -31
4 3 7 -4 7 -14 0 -26 -30 -18 -34 10 -2 12 2 27 10 31 10 7 10 9 1 9 -7 0 -13
7 -13 15 0 8 6 15 14 15 10 0 14 -10 11 -35z m13135 -117 c155 -100 326 -172
527 -222 472 -118 864 -93 1214 77 104 51 121 48 22 -3 -38 -19 -71 -39 -74
-43 -3 -5 -9 -8 -13 -8 -24 3 -38 -2 -53 -19 -10 -11 -25 -20 -33 -20 -9 0
-20 -4 -26 -9 -16 -15 -252 -88 -314 -97 -101 -14 -135 -16 -245 -15 -176 1
-255 5 -255 12 0 3 -24 7 -52 8 -31 1 -55 7 -60 15 -4 7 -23 13 -42 14 -19 1
-52 8 -73 17 -20 9 -55 18 -77 21 -22 3 -43 9 -46 13 -3 5 -34 19 -70 30 -71
24 -79 27 -160 65 -60 27 -233 150 -239 169 -2 7 -22 29 -45 50 l-41 38 50
-29 c28 -16 75 -45 105 -64z m-13117 27 c-3 -9 -8 -14 -10 -11 -3 3 -2 9 2 15
9 16 15 13 8 -4z m-17 -33 c-9 -8 -26 10 -26 26 1 15 2 15 15 -2 8 -11 13 -21
11 -24z m-12 -8 c21 -8 20 -20 -1 -28 -10 -4 -14 -4 -10 0 4 4 2 13 -4 21 -13
14 -9 16 15 7z m14950 -19 c-10 -8 -23 -15 -28 -15 -6 0 -1 7 10 15 10 8 23
15 28 15 6 0 1 -7 -10 -15z m-86 -4 c7 -1 10 -6 7 -11 -4 -6 -11 -8 -16 -5 -5
4 -9 2 -9 -4 0 -6 -7 -7 -17 -4 -11 5 -14 3 -8 -6 4 -8 2 -17 -6 -22 -12 -7
-11 -9 2 -9 8 0 20 4 27 10 8 6 7 5 0 -4 -26 -27 -192 -90 -236 -90 -24 1 -38
-2 -31 -6 18 -12 -33 -18 -157 -19 l-111 -1 3 25 c2 26 39 64 62 65 6 0 12 4
12 10 0 5 7 6 17 3 10 -4 14 -2 9 5 -3 6 -2 13 4 17 6 3 14 -4 18 -16 6 -16
11 -19 17 -10 5 10 9 10 15 2 10 -17 58 -16 88 2 6 5 17 5 22 2 6 -3 10 -1 10
5 0 7 6 10 13 7 6 -2 26 1 44 8 17 7 62 17 100 21 37 4 62 9 56 11 -25 9 -12
19 20 17 17 -1 38 -3 45 -3z m32 -31 c-8 -5 -19 -10 -25 -10 -5 0 -3 5 5 10 8
5 20 10 25 10 6 0 3 -5 -5 -10z m1460 -21 c0 -5 -4 -9 -10 -9 -5 0 -10 7 -10
16 0 8 5 12 10 9 6 -3 10 -10 10 -16z m-16340 -24 c0 -2 -7 -5 -15 -9 -9 -3
-15 0 -15 9 0 9 6 12 15 9 8 -4 15 -7 15 -9z m410 -15 c0 -5 -4 -10 -10 -10
-5 0 -10 5 -10 10 0 6 5 10 10 10 6 0 10 -4 10 -10z m15928 -656 c-4 -601 -6
-642 -24 -689 -25 -65 -95 -135 -175 -176 -57 -29 -77 -33 -174 -39 -107 -7
-1955 -8 -2322 -2 -101 2 -183 7 -183 11 0 5 111 7 248 6 437 -6 537 -5 753
10 138 10 287 12 809 15 664 4 846 23 914 99 24 26 16 26 -34 1 -50 -26 -161
-37 -325 -35 -71 2 -348 3 -614 4 -266 0 -482 3 -479 6 3 3 18 8 34 11 16 3
31 8 34 12 6 8 81 45 95 47 43 4 95 18 95 25 0 5 17 12 38 15 69 11 81 15 96
30 8 8 22 15 30 15 9 0 26 10 37 21 18 18 25 20 40 11 15 -9 19 -8 24 8 4 11
10 20 15 20 5 0 21 5 37 12 15 6 34 10 41 9 7 -1 15 5 18 13 3 9 10 13 15 10
5 -3 9 -1 9 4 0 6 11 13 25 16 14 4 25 11 25 17 0 6 4 8 9 4 5 -3 15 1 23 8 7
8 26 17 42 21 31 8 55 31 56 55 0 7 -6 11 -13 8 -7 -3 -19 4 -26 15 -18 28 -1
38 70 38 31 0 77 3 103 6 l46 7 0 78 c0 43 5 81 10 84 6 3 10 0 10 -8 0 -8 12
-27 27 -43 15 -16 26 -30 25 -31 -1 -2 -2 -8 -2 -14 0 -8 5 -8 15 1 12 10 15
10 15 -4 0 -9 5 -16 10 -16 6 0 10 5 10 10 0 13 33 44 51 48 7 2 17 8 20 14 4
6 12 7 18 4 6 -4 11 -3 11 3 0 12 58 71 71 71 12 0 49 37 49 50 0 6 7 10 16
10 9 0 18 9 21 20 3 11 9 20 14 20 5 0 9 7 9 15 0 9 10 15 23 16 16 1 18 2 5
6 -23 6 -23 7 7 37 14 14 25 32 25 41 0 8 4 15 9 15 4 0 6 11 3 25 -2 14 0 25
6 25 8 0 16 24 23 75 1 6 9 15 17 21 8 6 16 20 17 30 0 11 5 25 9 33 5 8 10
30 11 50 10 198 19 301 27 293 6 -6 8 -257 6 -648z m-16352 621 c-9 -9 -16
-13 -16 -8 0 5 5 14 12 21 6 6 14 10 16 7 2 -2 -3 -11 -12 -20z m1 -110 c-4
-8 -11 -15 -17 -15 -7 0 -7 6 0 21 13 23 26 19 17 -6z m2323 -144 c7 -13 9
-34 5 -49 l-7 -27 -9 23 c-5 13 -11 70 -13 125 -5 95 -4 97 3 26 5 -41 14 -86
21 -98z m-2315 81 c0 -18 -3 -32 -8 -32 -4 0 -5 -5 -2 -10 4 -6 11 -8 16 -5
12 8 11 3 -5 -36 -12 -29 -16 -31 -22 -15 -4 11 -2 21 6 26 9 5 9 9 1 14 -14
9 -12 98 3 93 6 -2 11 -18 11 -35z m-2 -149 c-7 -2 -19 -2 -25 0 -7 3 -2 5 12
5 14 0 19 -2 13 -5z m-3 -68 c0 -8 -4 -15 -8 -15 -5 0 -9 7 -9 15 0 8 4 15 9
15 4 0 8 -7 8 -15z m18 -43 c2 -7 -3 -15 -12 -18 -9 -3 -13 -10 -10 -15 3 -5
0 -9 -5 -9 -16 0 -13 20 4 26 8 4 15 10 15 16 0 5 -4 7 -9 3 -5 -3 -12 -1 -15
4 -4 5 2 8 11 7 9 -2 19 -8 21 -14z m2582 -13 c-11 -8 -12 -12 -3 -15 7 -3 10
-11 7 -18 -6 -17 55 -76 78 -76 24 0 88 -41 88 -57 0 -22 -116 -113 -195 -152
-79 -39 -158 -60 -203 -53 -28 4 -56 57 -72 139 -11 55 -10 66 6 99 18 35 25
39 130 73 60 20 123 46 140 58 16 12 31 19 34 17 2 -3 -2 -10 -10 -15z m-520
-49 c105 -20 160 -91 141 -182 -24 -111 -66 -142 -186 -136 -60 3 -78 8 -109
32 -47 36 -92 123 -82 160 10 40 75 105 121 121 49 17 50 17 115 5z m-2074
-18 c10 -15 8 -18 -10 -20 -16 -1 -18 1 -6 8 10 7 11 10 3 10 -7 0 -13 5 -13
10 0 16 14 12 26 -8z m11872 -277 c12 -3 22 -11 22 -16 0 -6 5 -7 12 -3 7 5 8
3 3 -6 -6 -10 -4 -12 8 -7 21 8 126 -61 193 -127 58 -59 114 -141 113 -165 0
-14 -1 -14 -6 -1 -8 19 -56 84 -65 88 -5 2 -8 10 -8 18 0 9 -4 12 -10 9 -5 -3
-10 2 -10 11 0 10 -3 15 -6 11 -8 -8 -34 18 -34 35 0 10 -3 9 -10 -2 -6 -10
-10 -11 -10 -2 0 6 -5 12 -11 12 -6 0 -33 18 -59 40 -26 22 -52 40 -56 40 -5
0 -21 11 -36 25 -15 14 -33 25 -41 25 -7 0 -22 7 -33 16 -19 15 -19 15 1 10
11 -2 30 -7 43 -11z m805 -122 c-30 -54 -59 -100 -63 -103 -5 -3 -20 -29 -33
-57 -13 -29 -29 -58 -35 -66 -7 -8 -13 -26 -14 -40 -1 -14 -5 -24 -9 -21 -8 5
-22 -27 -14 -34 3 -3 5 1 5 8 0 7 2 11 5 8 10 -10 -7 -38 -24 -39 -11 0 -12
-2 -3 -6 10 -4 10 -8 0 -21 -10 -14 -10 -15 2 -4 20 17 26 16 59 -17 22 -21
33 -26 38 -18 9 14 65 18 74 5 9 -14 63 -17 71 -4 6 8 8 7 8 -2 0 -7 4 -11 9
-7 5 3 12 1 16 -5 3 -5 0 -10 -7 -11 -7 0 -4 -4 7 -8 24 -10 47 -3 38 12 -4 6
0 8 9 4 9 -3 21 0 27 6 9 9 11 8 6 -5 -9 -22 11 -24 32 -2 9 8 22 13 29 10 8
-3 14 -2 14 3 0 8 38 24 53 22 4 -1 7 3 7 8 0 5 15 17 33 27 80 42 107 54 120
54 7 0 19 6 27 13 7 6 -2 -10 -21 -38 -68 -100 -822 -847 -967 -959 -33 -25
-158 -108 -278 -185 -121 -77 -279 -180 -353 -228 -74 -48 -200 -121 -280
-160 -80 -40 -155 -80 -165 -88 -11 -8 -22 -11 -25 -6 -4 5 -67 38 -141 74
-74 36 -247 120 -385 187 -361 177 -450 218 -745 352 -286 130 -685 327 -677
335 3 2 24 -5 47 -17 23 -12 48 -19 55 -16 7 2 16 -1 18 -9 3 -7 20 -16 38
-20 19 -4 40 -11 49 -16 8 -5 98 -43 200 -84 102 -41 193 -79 202 -85 10 -5
22 -10 27 -10 5 0 26 -7 47 -17 39 -16 51 -20 89 -26 11 -2 25 -6 31 -9 6 -4
32 -8 57 -9 26 -2 53 -9 58 -16 6 -7 16 -10 23 -6 6 4 23 6 38 4 18 -1 28 2
28 11 0 9 2 10 8 2 5 -8 13 -4 25 12 17 23 17 24 0 24 -15 0 -16 2 -3 10 10 7
18 6 25 -4 6 -7 18 -13 29 -13 17 0 17 1 2 12 -24 18 -19 26 9 15 14 -5 26 -7
26 -5 1 3 2 9 3 14 2 19 16 23 17 5 0 -18 1 -18 9 1 8 18 9 19 9 1 1 -16 3
-16 21 5 10 13 19 18 20 12 0 -7 5 -13 11 -13 5 0 7 5 4 10 -3 6 0 10 7 11 7
0 2 5 -12 11 -18 8 -21 12 -10 15 26 9 50 35 50 54 0 9 3 19 8 22 4 2 1 2 -5
1 -7 -2 -13 3 -13 11 0 8 6 15 13 16 6 0 2 4 -11 10 -13 5 -20 13 -17 19 3 5
1 10 -6 10 -7 0 -19 6 -28 14 -9 8 -28 26 -43 39 -15 14 -29 23 -31 21 -2 -3
-10 2 -17 11 -7 8 -19 15 -26 15 -8 0 -14 4 -14 9 0 5 -12 14 -27 20 -16 6
-35 15 -43 21 -18 12 -517 254 -543 263 -10 4 -15 12 -11 18 3 6 9 7 13 3 3
-5 14 -10 24 -12 11 -2 78 -30 150 -64 73 -33 305 -138 517 -233 568 -256 661
-298 708 -328 41 -27 42 -29 42 -82 0 -42 5 -60 23 -81 l23 -26 31 26 c42 36
75 46 145 46 l62 0 165 163 c91 89 207 201 256 247 50 47 184 176 298 287 114
112 212 203 217 203 6 0 34 33 64 73 29 39 84 108 122 152 38 44 109 130 158
190 83 103 137 165 142 165 1 0 -22 -44 -53 -97z m-1603 3 c0 -2 -8 -10 -17
-17 -16 -13 -17 -12 -4 4 13 16 21 21 21 13z m-50 -40 c0 -2 -8 -10 -17 -17
-16 -13 -17 -12 -4 4 13 16 21 21 21 13z m-4341 -53 c-13 -15 -31 -33 -41 -40
-9 -8 -15 -24 -13 -39 2 -18 -2 -24 -11 -20 -8 3 -14 1 -14 -5 0 -17 -73 -83
-95 -87 -11 -1 -21 -7 -23 -12 -5 -15 -32 -12 -38 4 -3 8 -12 12 -20 9 -8 -3
-14 1 -14 10 0 9 -8 18 -17 21 -14 4 -13 4 2 2 45 -6 205 85 269 153 37 38 49
41 15 4z m4252 -28 c-22 -24 -41 -51 -41 -60 0 -8 -4 -15 -10 -15 -5 0 -10 -6
-10 -12 0 -7 -12 -26 -26 -43 -14 -16 -32 -45 -41 -65 -8 -19 -19 -44 -24 -55
-5 -11 -11 -31 -13 -45 -3 -14 -10 -42 -15 -63 -5 -21 -7 -64 -5 -95 4 -75 6
-82 16 -82 4 0 8 -8 8 -17 0 -23 35 -81 66 -111 14 -13 22 -27 19 -31 -2 -5
12 -23 32 -41 31 -29 35 -31 31 -12 -4 12 -1 22 4 22 6 0 5 6 -2 15 -7 8 -10
22 -6 30 3 8 1 15 -5 15 -6 0 -7 5 -4 10 4 6 10 8 14 6 4 -3 5 11 3 31 -3 23
-1 33 6 29 13 -8 22 17 16 48 -2 15 4 42 16 63 11 21 20 44 20 51 0 7 7 15 15
18 9 4 31 40 51 81 20 41 38 73 40 70 2 -2 -5 -22 -16 -45 -26 -53 -50 -146
-50 -192 0 -122 54 -253 155 -375 77 -93 125 -163 125 -182 0 -7 -15 -29 -32
-48 -25 -27 -44 -37 -79 -41 -41 -6 -56 -1 -126 34 -97 49 -306 176 -323 197
-17 20 1 41 41 50 16 4 29 10 29 14 0 5 -18 57 -41 117 -55 146 -67 241 -45
353 16 88 63 199 114 274 32 46 121 147 129 147 3 0 -13 -20 -36 -45z m-3990
-73 c-5 -10 -18 -25 -27 -33 -11 -9 -9 -2 6 19 26 35 36 42 21 14z m-989 -182
c-86 -82 -117 -102 -135 -83 -10 10 72 79 131 110 29 15 61 36 69 45 9 10 19
18 22 18 3 0 -36 -41 -87 -90z m851 78 l42 3 -50 -46 c-100 -91 -228 -146
-345 -147 -42 0 -96 3 -120 7 -45 7 -100 30 -100 42 0 12 50 51 55 43 8 -13
207 -3 215 10 4 6 18 12 31 12 13 1 36 10 50 19 14 10 37 21 52 24 14 4 31 13
38 21 6 8 15 12 18 9 4 -2 21 -1 37 4 16 4 30 5 32 2 1 -4 21 -5 45 -3z m4311
-43 c-9 -14 -18 -25 -21 -25 -5 0 5 18 20 38 17 22 18 13 1 -13z m876 15 c0
-5 -2 -10 -4 -10 -3 0 -8 5 -11 10 -3 6 -1 10 4 10 6 0 11 -4 11 -10z m3175 0
c-3 -5 -11 -10 -16 -10 -6 0 -7 5 -4 10 3 6 11 10 16 10 6 0 7 -4 4 -10z
m1574 -242 c-2 -18 -9 -43 -17 -54 -7 -12 -15 -41 -18 -65 -7 -59 -14 -80 -24
-74 -8 5 -30 -54 -30 -81 0 -7 -7 -15 -16 -18 -12 -5 -15 -2 -9 11 28 68 94
254 100 281 3 17 9 32 12 32 2 0 3 -15 2 -32z m-3292 -44 c-3 -3 -12 -4 -19
-1 -8 3 -5 6 6 6 11 1 17 -2 13 -5z m-2547 -218 c0 -3 -4 -8 -10 -11 -5 -3
-10 -1 -10 4 0 6 5 11 10 11 6 0 10 -2 10 -4z m-10664 -149 c3 -22 -15 -33
-29 -17 -9 9 -9 11 -1 7 7 -4 14 0 17 7 3 8 2 17 -4 20 -5 2 -4 3 2 2 7 -1 13
-10 15 -19z m8868 -26 c-2 -3 -12 3 -22 13 -16 17 -16 18 5 5 12 -7 20 -15 17
-18z m-8840 -36 c19 -29 20 -35 3 -35 -7 0 -18 14 -24 30 -14 36 -1 39 21 5z
m41 -57 c4 -13 8 -27 9 -31 0 -4 8 -12 16 -17 8 -5 11 -10 6 -10 -5 0 -3 -6 3
-13 6 -8 8 -17 4 -20 -3 -4 3 -7 15 -7 21 0 27 -9 23 -39 -2 -7 2 -10 8 -7 5
4 15 -4 22 -16 14 -27 81 -112 92 -116 4 -2 5 -8 2 -12 -3 -5 8 -23 25 -40 16
-17 30 -34 30 -38 0 -4 16 -25 35 -45 19 -20 35 -40 35 -45 1 -12 48 -62 60
-62 5 0 10 -5 10 -11 0 -12 11 -25 95 -114 28 -30 63 -69 80 -88 16 -20 33
-33 37 -31 4 3 13 -5 19 -18 5 -13 22 -29 37 -36 15 -6 43 -25 62 -42 46 -40
50 -43 85 -65 17 -11 53 -36 81 -57 29 -20 54 -35 56 -32 3 2 11 -2 18 -11 7
-8 16 -15 21 -15 5 0 27 -11 49 -25 22 -14 46 -25 53 -25 8 0 24 -9 37 -20 13
-11 33 -20 45 -20 12 0 34 -9 48 -20 14 -11 31 -20 38 -20 7 0 21 -7 31 -17
10 -9 29 -17 42 -17 14 -1 34 -10 45 -20 11 -10 25 -15 30 -11 6 3 38 -8 71
-24 33 -17 70 -31 81 -31 11 0 40 -11 65 -25 25 -14 53 -25 64 -25 10 0 20 -4
22 -9 2 -6 19 -13 38 -16 57 -9 70 -15 71 -33 0 -9 3 -12 5 -6 5 12 84 -5 123
-26 12 -6 21 -8 21 -4 0 3 6 2 13 -3 6 -6 19 -11 27 -11 27 -1 125 -16 170
-27 14 -3 68 -8 120 -10 52 -3 111 -8 130 -10 19 -3 67 -6 107 -8 39 -1 69 -5
67 -9 -3 -4 -11 -5 -19 -1 -8 3 -15 0 -15 -7 0 -9 -11 -11 -39 -6 -23 3 -42 2
-46 -4 -3 -6 -16 -8 -28 -5 -12 2 -67 7 -122 10 -227 12 -347 31 -510 77 -22
7 -47 13 -55 14 -35 6 -169 48 -219 70 -29 13 -62 24 -72 24 -10 0 -21 5 -24
10 -3 6 -14 10 -23 10 -9 1 -51 18 -92 39 -41 22 -106 55 -145 75 -77 40 -95
50 -142 83 -17 13 -37 23 -43 23 -6 0 -13 7 -16 15 -4 8 -14 15 -24 15 -10 0
-26 7 -34 16 -9 8 -16 13 -16 9 0 -3 -6 -1 -12 5 -7 6 -35 25 -63 42 -27 18
-52 35 -55 39 -3 3 -18 13 -35 21 -16 8 -29 20 -28 26 2 7 -5 12 -16 12 -10 0
-21 9 -24 20 -3 12 -14 20 -25 20 -12 0 -23 9 -27 20 -3 11 -11 19 -17 17 -6
-1 -16 7 -22 19 -6 11 -17 19 -24 16 -7 -2 -16 5 -19 17 -3 12 -10 21 -15 21
-13 0 -138 125 -138 139 0 7 -4 9 -10 6 -5 -3 -10 -1 -10 5 0 6 -22 33 -50 61
-27 27 -50 54 -50 59 0 5 -6 13 -12 17 -7 4 -31 31 -53 58 -22 28 -45 56 -52
63 -7 7 -13 18 -13 23 0 5 -6 9 -13 9 -14 0 -37 40 -37 64 0 8 -7 16 -15 20
-8 3 -15 12 -15 21 0 8 -7 15 -15 15 -8 0 -16 5 -16 10 -1 6 -3 13 -4 18 -2 4
-6 17 -10 30 -4 12 -14 22 -22 22 -11 0 -14 9 -11 34 3 25 -1 38 -14 48 -21
15 -23 34 -5 41 21 9 24 8 32 -15z m15565 -1218 c0 -13 -61 -51 -71 -45 -4 3
-9 -2 -13 -10 -3 -8 -12 -15 -21 -15 -8 0 -15 -4 -15 -10 0 -5 -7 -10 -15 -10
-9 0 -46 -14 -82 -31 -36 -17 -73 -32 -82 -34 -9 -2 -36 -11 -61 -20 -53 -19
-59 -21 -125 -35 -27 -6 -57 -14 -65 -17 -8 -3 -22 -7 -30 -9 -8 -2 -35 -7
-60 -13 -25 -5 -70 -12 -100 -16 -30 -4 -66 -9 -80 -10 -140 -18 -289 -25
-296 -13 -3 4 7 9 23 9 15 1 39 3 53 6 14 2 49 4 77 4 29 0 55 4 58 9 3 5 22
7 42 4 20 -2 39 -1 42 4 6 9 142 34 179 33 12 -1 22 3 22 8 0 8 46 22 85 25
11 1 36 7 55 13 19 6 55 17 80 24 25 7 56 19 70 26 14 7 31 13 38 13 7 0 32 9
54 20 23 11 49 20 57 20 9 0 25 7 36 16 22 16 93 39 113 35 7 -1 12 2 11 6 -3
15 1 23 11 23 6 0 10 -5 10 -10z"/>
<path d="M9709 16886 c-2 -2 -49 -6 -104 -10 -370 -23 -763 -94 -1225 -223
-177 -49 -439 -141 -560 -196 -30 -14 -91 -40 -135 -57 -44 -18 -108 -46 -143
-61 -34 -16 -65 -29 -68 -29 -5 0 -113 -49 -184 -84 -38 -18 -129 -70 -198
-111 -30 -18 -193 -128 -363 -246 -78 -54 -72 -49 -139 -102 -30 -24 -77 -61
-105 -81 -133 -101 -364 -326 -554 -541 -45 -52 -241 -310 -241 -318 0 -3 -46
-74 -103 -158 -56 -85 -109 -170 -116 -189 -8 -19 -25 -60 -39 -90 -13 -30
-41 -103 -62 -161 -20 -58 -39 -109 -42 -115 -3 -5 -11 -27 -17 -49 -7 -22
-16 -49 -21 -60 -22 -50 -101 -304 -123 -397 -93 -387 -119 -899 -62 -1238 28
-169 107 -487 130 -525 7 -11 15 -32 19 -47 4 -19 13 -28 25 -28 16 0 25 -19
51 -102 17 -57 47 -153 66 -215 71 -228 250 -548 477 -852 81 -108 484 -530
596 -624 165 -139 434 -329 566 -402 39 -21 77 -43 85 -50 50 -41 441 -236
660 -330 509 -217 1099 -376 1600 -429 249 -27 943 -36 1206 -16 356 27 665
80 1099 190 230 58 309 83 530 168 302 115 566 236 736 337 60 36 159 90 221
121 186 93 440 272 610 430 176 164 508 509 581 604 139 180 342 550 431 785
21 55 49 128 62 162 13 34 24 68 24 76 0 8 7 34 16 58 9 24 18 57 20 72 2 15
8 35 13 45 10 19 11 23 11 56 0 19 5 23 25 21 14 -2 22 1 19 6 -3 6 0 17 7 25
7 9 13 23 14 32 1 10 6 33 12 52 31 99 52 180 57 220 3 25 8 55 10 68 37 179
53 573 31 762 -30 260 -66 492 -91 580 -18 60 -53 181 -91 305 -13 44 -29 96
-35 115 -20 67 -60 166 -109 268 -27 57 -49 107 -49 112 0 4 -3 10 -7 12 -5 2
-19 26 -33 53 -13 28 -43 79 -66 115 -23 36 -54 87 -69 115 -34 61 -77 126
-125 185 -20 25 -44 56 -53 70 -89 133 -260 322 -397 440 -28 25 -64 56 -79
70 -28 26 -107 94 -176 152 -22 18 -53 45 -69 58 -69 61 -106 90 -186 146
-101 72 -337 227 -388 255 -21 11 -44 24 -52 29 -133 82 -242 136 -420 210
-69 29 -147 62 -175 75 -27 12 -66 30 -87 39 -20 9 -41 16 -47 16 -6 0 -19 5
-29 10 -35 21 -306 119 -442 160 -127 38 -161 48 -285 79 -263 66 -482 109
-645 126 -14 1 -88 10 -165 19 -77 8 -178 18 -225 22 -95 7 -805 16 -811 10z
m-999 -1286 c-8 -5 -24 -9 -35 -9 l-20 0 20 9 c11 5 27 9 35 9 13 1 13 0 0 -9z
m-90 -24 c0 -2 -13 -9 -30 -15 -16 -5 -30 -6 -30 -1 0 5 8 11 18 13 24 7 42 8
42 3z m-74 -23 c-9 -10 -78 -35 -98 -36 -10 -1 -18 -5 -18 -8 0 -4 -10 -11
-22 -15 -40 -12 -113 -46 -119 -56 -3 -5 -8 -9 -10 -7 -2 1 -23 -10 -47 -25
-23 -14 -61 -36 -82 -47 -22 -12 -43 -25 -46 -30 -3 -5 -9 -7 -14 -4 -4 3 -13
-2 -20 -10 -7 -8 -19 -15 -27 -15 -7 0 -16 -6 -19 -14 -3 -8 -18 -17 -33 -21
-15 -3 -33 -14 -41 -24 -7 -11 -19 -17 -26 -14 -8 3 -17 -2 -20 -11 -3 -9 -13
-16 -20 -16 -16 0 -19 -3 -74 -50 -25 -21 -36 -26 -42 -17 -5 8 -8 4 -8 -10 0
-17 -9 -25 -41 -33 -23 -6 -38 -14 -35 -17 12 -12 -17 -33 -45 -33 -16 0 -29
-5 -29 -11 0 -5 4 -8 8 -5 5 3 9 -1 9 -9 0 -8 -3 -14 -6 -13 -24 2 -41 -4 -41
-17 0 -9 -6 -12 -15 -9 -8 4 -15 2 -15 -2 0 -5 -15 -16 -32 -23 -18 -8 -40
-22 -48 -31 -8 -9 -20 -15 -26 -13 -7 2 -14 -8 -18 -22 -4 -14 -11 -25 -16
-25 -5 0 -7 7 -4 15 5 11 2 13 -10 9 -9 -3 -14 -10 -11 -14 10 -16 -7 -41 -19
-31 -8 7 -20 3 -37 -12 -32 -30 -89 -56 -106 -50 -8 3 -13 -2 -13 -15 0 -26
-16 -37 -24 -17 -5 15 -27 21 -25 8 4 -27 -2 -32 -26 -23 -27 10 -32 2 -12
-19 8 -10 8 -12 0 -7 -6 3 -14 2 -18 -4 -3 -5 -11 -10 -16 -10 -6 0 -7 4 -4
10 3 6 -1 7 -9 4 -9 -3 -13 -10 -10 -15 3 -5 -2 -9 -10 -9 -9 0 -16 -6 -16
-12 0 -9 -4 -8 -10 2 -8 13 -10 12 -10 -3 0 -11 -9 -21 -20 -24 -11 -3 -20
-12 -20 -20 0 -9 -6 -13 -14 -10 -8 3 -22 -3 -31 -13 -10 -11 -21 -17 -25 -15
-4 3 -11 -2 -14 -11 -4 -9 -9 -14 -12 -11 -4 3 -16 -3 -27 -14 -12 -11 -32
-22 -44 -25 -13 -4 -23 -10 -23 -16 0 -5 -4 -6 -10 -3 -5 3 -10 -1 -10 -10 0
-9 -4 -14 -9 -11 -5 3 -33 -17 -62 -45 -30 -28 -73 -59 -97 -70 -24 -10 -41
-23 -38 -28 3 -5 -5 -12 -19 -15 -14 -4 -25 -13 -25 -21 0 -15 -18 -30 -27
-22 -7 8 193 223 256 274 31 25 83 69 116 98 333 293 515 414 975 645 104 53
221 100 415 166 256 88 307 103 291 87z m1919 -428 c216 -26 462 -79 630 -137
69 -24 289 -120 385 -169 36 -18 149 -88 251 -156 212 -141 296 -218 388 -360
138 -211 196 -335 243 -513 70 -270 38 -704 -65 -880 -15 -25 -51 -94 -82
-155 -112 -221 -163 -292 -260 -363 -27 -20 -56 -42 -63 -49 -7 -7 -34 -25
-60 -40 -26 -15 -53 -33 -60 -40 -26 -26 -257 -128 -312 -139 -116 -22 -370
-125 -405 -164 -10 -11 -23 -20 -29 -20 -13 -1 -66 -46 -66 -56 0 -4 -7 -14
-15 -23 -83 -91 -137 -184 -157 -269 -6 -26 -13 -213 -17 -419 -3 -204 -8
-374 -11 -377 -6 -6 -1430 -10 -1434 -4 -1 2 1 278 5 613 4 411 10 624 18 654
16 59 69 173 114 242 149 232 226 281 689 439 113 38 268 100 345 137 177 85
238 141 306 283 25 52 50 119 56 148 16 77 13 205 -5 276 -9 33 -18 73 -19 88
-4 31 -10 39 -77 107 -27 26 -48 52 -48 57 0 12 -111 92 -180 131 -131 73
-292 105 -526 104 -179 -1 -410 -73 -500 -157 -59 -54 -106 -89 -115 -87 -18
5 -117 -99 -154 -163 -58 -99 -83 -172 -109 -324 -19 -107 -28 -138 -45 -151
-20 -16 -73 -18 -714 -17 -380 0 -699 -1 -707 -3 -13 -4 -15 23 -13 201 3 284
22 377 123 605 9 22 30 68 45 103 15 34 32 62 36 62 5 0 9 7 9 15 0 8 4 15 10
15 5 0 14 10 21 21 8 17 8 20 -1 14 -7 -4 0 14 16 41 37 66 45 75 57 67 6 -4
7 -1 2 6 -14 23 186 203 308 278 39 25 81 53 92 62 34 30 254 155 380 216 272
131 708 243 1035 265 171 12 528 4 685 -15z m-3975 -864 c0 -5 -7 -11 -14 -14
-10 -4 -13 -1 -9 9 6 15 23 19 23 5z m7929 -849 c98 -256 134 -423 156 -727
18 -249 19 -349 5 -340 -6 4 -10 56 -10 123 0 257 -45 518 -140 817 -45 141
-80 258 -80 264 0 17 41 -64 69 -137z m553 -1514 c-7 -7 -12 -8 -12 -2 0 14
12 26 19 19 2 -3 -1 -11 -7 -17z m-597 -693 c-86 -238 -314 -591 -516 -800
-107 -110 -169 -178 -169 -186 0 -3 -21 -21 -47 -39 -55 -40 -45 -20 29 58 25
26 53 63 63 81 9 19 45 64 79 101 98 108 137 159 259 342 111 168 144 222 202
338 35 69 87 154 97 158 5 2 8 11 8 20 0 10 3 13 10 6 6 -6 1 -34 -15 -79z
m-3617 -948 c7 -8 11 -159 11 -435 1 -498 6 -472 -94 -464 -33 3 -343 6 -688
6 -518 1 -629 -1 -636 -13 -7 -10 -10 -10 -16 -1 -6 9 -11 856 -6 913 1 4 320
7 710 7 555 0 711 -3 719 -13z"/>
<path d="M16521 6944 c0 -11 3 -14 6 -6 3 7 2 16 -1 19 -3 4 -6 -2 -5 -13z"/>
<path d="M6468 5108 c5 -5 16 -8 23 -6 8 3 3 7 -10 11 -17 4 -21 3 -13 -5z"/>
<path d="M16150 5220 c-8 -5 -10 -10 -5 -10 6 0 17 5 25 10 8 5 11 10 5 10 -5
0 -17 -5 -25 -10z"/>
<path d="M16076 5191 c-4 -5 3 -7 14 -4 23 6 26 13 6 13 -8 0 -17 -4 -20 -9z"/>
<path d="M11815 3090 c3 -5 8 -10 11 -10 2 0 4 5 4 10 0 6 -5 10 -11 10 -5 0
-7 -4 -4 -10z"/>
<path d="M11736 2997 c3 -10 9 -15 12 -12 3 3 0 11 -7 18 -10 9 -11 8 -5 -6z"/>
<path d="M18027 17919 c7 -7 15 -10 18 -7 3 3 -2 9 -12 12 -14 6 -15 5 -6 -5z"/>
<path d="M1875 17549 c-4 -6 -5 -12 -2 -15 2 -3 7 2 10 11 7 17 1 20 -8 4z"/>
<path d="M18476 17467 c3 -10 9 -15 12 -12 3 3 0 11 -7 18 -10 9 -11 8 -5 -6z"/>
<path d="M1715 17349 c-4 -6 -5 -12 -2 -15 2 -3 7 2 10 11 7 17 1 20 -8 4z"/>
<path d="M18596 17307 c3 -10 9 -15 12 -12 3 3 0 11 -7 18 -10 9 -11 8 -5 -6z"/>
<path d="M18630 17251 c0 -5 5 -13 10 -16 6 -3 10 -2 10 4 0 5 -4 13 -10 16
-5 3 -10 2 -10 -4z"/>
<path d="M1635 17235 c-5 -11 -10 -24 -13 -30 -3 -5 3 -3 13 7 9 9 15 22 12
30 -3 9 -7 7 -12 -7z"/>
<path d="M1555 17115 c-5 -11 -10 -24 -13 -30 -3 -5 3 -3 13 7 9 9 15 22 12
30 -3 9 -7 7 -12 -7z"/>
<path d="M18713 17115 c0 -8 4 -12 9 -9 5 3 6 10 3 15 -9 13 -12 11 -12 -6z"/>
<path d="M1517 17053 c-4 -3 -7 -11 -7 -17 0 -6 5 -5 12 2 6 6 9 14 7 17 -3 3
-9 2 -12 -2z"/>
<path d="M1471 16964 c0 -11 3 -14 6 -6 3 7 2 16 -1 19 -3 4 -6 -2 -5 -13z"/>
<path d="M1436 16902 c-4 -13 -5 -26 -2 -29 10 -11 18 4 14 29 l-4 23 -8 -23z"/>
<path d="M1390 16788 c0 -19 2 -20 10 -8 13 19 13 30 0 30 -5 0 -10 -10 -10
-22z"/>
<path d="M1357 16713 c-4 -3 -7 -16 -6 -27 0 -19 1 -19 10 3 10 24 8 36 -4 24z"/>
<path d="M1318 16604 c-5 -4 -8 -19 -8 -33 1 -23 2 -24 11 -8 11 19 9 53 -3
41z"/>
<path d="M1277 16473 c-11 -10 -8 -73 3 -73 6 0 10 18 10 40 0 41 -2 45 -13
33z"/>
<path d="M18745 8260 c-3 -5 1 -10 10 -10 9 0 13 5 10 10 -3 6 -8 10 -10 10
-2 0 -7 -4 -10 -10z"/>
<path d="M18785 8149 c-4 -6 -5 -12 -2 -15 2 -3 7 2 10 11 7 17 1 20 -8 4z"/>
<path d="M18670 8105 c0 -8 4 -15 10 -15 5 0 7 7 4 15 -4 8 -8 15 -10 15 -2 0
-4 -7 -4 -15z"/>
<path d="M1784 8059 c0 -11 5 -18 10 -16 16 5 18 24 4 30 -9 3 -14 -3 -14 -14z"/>
<path d="M18640 8029 c0 -5 5 -7 10 -4 6 3 10 8 10 11 0 2 -4 4 -10 4 -5 0
-10 -5 -10 -11z"/>
<path d="M1770 8029 c0 -4 6 -18 13 -33 13 -23 16 -24 33 -11 19 14 19 14 0
15 -10 0 -25 8 -32 18 -7 9 -14 14 -14 11z"/>
<path d="M1714 8011 c4 -5 1 -12 -4 -14 -6 -3 -5 -4 2 -3 15 3 23 26 8 26 -6
0 -9 -4 -6 -9z"/>
<path d="M1671 7994 c0 -11 3 -14 6 -6 3 7 2 16 -1 19 -3 4 -6 -2 -5 -13z"/>
<path d="M18578 7983 c6 -2 10 -9 6 -14 -3 -5 2 -9 10 -9 9 0 16 4 16 9 0 9
-25 22 -38 20 -4 0 -1 -3 6 -6z"/>
<path d="M18750 7970 c-6 -11 -7 -20 -3 -20 5 0 14 9 21 20 7 11 8 20 2 20 -5
0 -14 -9 -20 -20z"/>
<path d="M1684 7968 c-4 -7 -2 -14 4 -16 7 -2 10 -8 7 -13 -4 -5 0 -6 8 -3 7
2 14 11 14 19 0 18 -24 28 -33 13z"/>
<path d="M18546 7965 c-3 -8 -1 -15 4 -15 13 0 22 18 11 24 -5 3 -11 -1 -15
-9z"/>
<path d="M18675 7970 c-3 -5 -1 -10 4 -10 6 0 11 5 11 10 0 6 -2 10 -4 10 -3
0 -8 -4 -11 -10z"/>
<path d="M18638 7944 c-13 -13 -14 -22 -5 -50 9 -30 13 -33 36 -27 14 3 31 6
38 6 7 0 10 4 7 9 -3 4 -15 6 -27 4 -16 -3 -26 3 -34 20 -6 13 -7 24 -2 24 5
0 9 -4 9 -10 0 -5 8 -10 18 -9 11 0 12 2 4 6 -10 4 -10 8 0 21 11 13 11 14 -1
8 -8 -5 -16 -4 -20 3 -5 7 -12 6 -23 -5z"/>
<path d="M1796 7937 c3 -10 9 -15 12 -12 3 3 0 11 -7 18 -10 9 -11 8 -5 -6z"/>
<path d="M1756 7932 c-4 -7 -2 -12 4 -12 6 0 9 -4 5 -9 -3 -6 5 -15 17 -22 18
-9 21 -9 11 1 -6 7 -9 19 -6 28 4 9 2 13 -4 9 -6 -4 -13 -2 -15 5 -3 9 -6 9
-12 0z"/>
<path d="M18580 7919 c0 -5 5 -7 10 -4 6 3 10 8 10 11 0 2 -4 4 -10 4 -5 0
-10 -5 -10 -11z"/>
<path d="M18758 7923 c7 -3 16 -2 19 1 4 3 -2 6 -13 5 -11 0 -14 -3 -6 -6z"/>
<path d="M1810 7903 c5 -2 8 -9 4 -14 -3 -5 0 -9 6 -9 15 0 7 23 -8 26 -7 1
-8 0 -2 -3z"/>
<path d="M18555 7900 c-3 -5 -1 -10 4 -10 6 0 11 5 11 10 0 6 -2 10 -4 10 -3
0 -8 -4 -11 -10z"/>
<path d="M18758 7903 c7 -3 16 -2 19 1 4 3 -2 6 -13 5 -11 0 -14 -3 -6 -6z"/>
<path d="M18790 7900 c0 -5 5 -10 10 -10 6 0 10 5 10 10 0 6 -4 10 -10 10 -5
0 -10 -4 -10 -10z"/>
<path d="M18585 7876 c-18 -13 -18 -14 3 -25 20 -11 22 -9 22 14 0 29 0 29
-25 11z"/>
<path d="M18760 7879 c0 -5 5 -7 10 -4 6 3 10 8 10 11 0 2 -4 4 -10 4 -5 0
-10 -5 -10 -11z"/>
<path d="M1700 7870 c-9 -6 -10 -10 -3 -10 6 0 15 5 18 10 8 12 4 12 -15 0z"/>
<path d="M1595 7860 c-3 -5 -1 -10 4 -10 6 0 11 5 11 10 0 6 -2 10 -4 10 -3 0
-8 -4 -11 -10z"/>
<path d="M1749 7858 c-11 -8 -10 -9 3 -4 29 9 32 -15 4 -40 -14 -14 -26 -30
-26 -37 0 -7 9 -1 19 12 19 25 41 22 41 -7 0 -13 3 -13 12 -4 10 10 10 15 1
20 -12 8 -12 36 0 48 21 21 -27 31 -54 12z"/>
<path d="M1720 7853 c0 -6 8 -17 18 -24 16 -13 16 -13 2 6 -8 11 -16 22 -17
24 -2 2 -3 0 -3 -6z"/>
<path d="M18765 7839 c-4 -6 -5 -13 -2 -16 7 -7 27 6 27 18 0 12 -17 12 -25
-2z"/>
<path d="M1680 7824 c0 -10 -5 -14 -16 -10 -8 3 -12 2 -9 -4 7 -11 53 -6 64 6
3 4 -2 4 -13 0 -14 -5 -17 -2 -12 9 3 8 1 15 -4 15 -6 0 -10 -7 -10 -16z"/>
<path d="M18577 7828 c-3 -9 -3 -19 0 -22 10 -9 41 -7 47 3 4 5 -2 8 -11 7
-10 -2 -21 4 -24 12 -5 14 -6 14 -12 0z"/>
<path d="M18722 7820 c-7 -11 -22 -20 -33 -20 -15 0 -19 -4 -15 -16 3 -9 6
-20 6 -25 0 -5 5 -9 11 -9 6 0 9 6 6 14 -6 16 16 40 26 29 4 -3 7 2 7 13 0 16
2 16 10 4 5 -8 12 -11 16 -7 4 4 1 14 -7 22 -13 13 -16 12 -27 -5z"/>
<path d="M1596 7787 c3 -10 9 -15 12 -12 3 3 0 11 -7 18 -10 9 -11 8 -5 -6z"/>
<path d="M18558 7783 c0 -10 -2 -25 -2 -33 -2 -18 14 -31 29 -22 17 11 47 13
40 2 -10 -17 4 -11 25 10 11 11 20 26 20 33 0 9 -3 8 -9 -2 -7 -11 -11 -10
-20 5 -6 11 -11 14 -11 9 0 -6 5 -16 12 -23 9 -9 4 -12 -25 -12 -50 0 -52 2
-49 28 1 12 0 22 -3 22 -3 0 -6 -8 -7 -17z"/>
<path d="M1677 7733 c-17 -26 -21 -40 -13 -45 19 -13 32 -9 33 12 1 13 -2 18
-9 14 -7 -4 -8 -2 -4 5 5 7 16 9 28 5 14 -4 18 -2 14 5 -4 6 -15 11 -24 11
-14 0 -15 2 -2 10 8 5 12 12 8 15 -4 4 -18 -10 -31 -32z"/>
<path d="M1788 7749 c6 -7 12 -19 12 -26 0 -11 -5 -11 -22 -3 -22 11 -22 10
-4 -4 10 -9 23 -13 27 -10 16 9 10 42 -8 49 -15 5 -16 4 -5 -6z"/>
<path d="M18679 7732 c11 -8 10 -11 -5 -15 -16 -4 -15 -5 4 -6 25 -1 26 20 1
27 -12 3 -12 2 0 -6z"/>
<path d="M18581 7711 c-23 -6 -39 -41 -19 -41 6 0 7 7 4 16 -4 11 -2 14 6 11
47 -19 47 -19 41 2 -3 12 -6 21 -7 20 0 -1 -12 -4 -25 -8z"/>
<path d="M1603 7689 c-1 -10 6 -23 15 -30 14 -11 15 -11 5 1 -18 19 -16 28 5
32 15 3 14 5 -3 9 -15 5 -21 1 -22 -12z"/>
<path d="M1707 7704 c-3 -3 -3 -12 0 -20 3 -9 -2 -14 -15 -14 -11 0 -25 -6
-31 -14 -10 -12 -9 -17 6 -24 24 -13 58 6 57 33 0 11 4 26 9 33 6 8 5 12 -5
12 -8 0 -17 -3 -21 -6z m3 -48 c0 -2 -7 -7 -16 -10 -8 -3 -12 -2 -9 4 6 10 25
14 25 6z"/>
<path d="M18624 7681 c0 -19 5 -27 14 -23 7 2 11 11 8 19 -3 8 -6 19 -6 24 0
5 -4 9 -9 9 -5 0 -8 -13 -7 -29z"/>
<path d="M18656 7688 c7 -11 34 -10 34 1 0 6 -9 9 -19 8 -11 0 -17 -5 -15 -9z"/>
<path d="M1640 7669 c0 -5 5 -7 10 -4 6 3 10 8 10 11 0 2 -4 4 -10 4 -5 0 -10
-5 -10 -11z"/>
<path d="M1794 7659 c-3 -6 -1 -16 5 -22 8 -8 11 -5 11 11 0 24 -5 28 -16 11z"/>
<path d="M1575 7640 c-3 -5 3 -10 14 -10 12 0 21 5 21 10 0 6 -6 10 -14 10 -8
0 -18 -4 -21 -10z"/>
<path d="M1763 7624 c-15 -15 -17 -28 -4 -20 5 4 11 1 13 -6 3 -8 6 -7 10 3 9
24 -4 39 -19 23z"/>
<path d="M1654 7597 c-8 -4 -14 -16 -14 -25 0 -13 3 -12 15 5 9 13 22 19 34
16 10 -3 21 -1 24 4 7 10 -40 11 -59 0z"/>
<path d="M1750 7572 c0 -5 7 -9 15 -9 8 0 12 4 9 9 -3 4 -9 8 -15 8 -5 0 -9
-4 -9 -8z"/>
<path d="M1725 7550 c3 -5 8 -10 11 -10 2 0 4 5 4 10 0 6 -5 10 -11 10 -5 0
-7 -4 -4 -10z"/>
<path d="M1670 7535 c-1 -5 -4 -21 -6 -35 -4 -23 -3 -24 12 -9 12 13 14 21 5
35 -6 11 -11 15 -11 9z"/>
<path d="M1625 7510 c-4 -6 -1 -10 5 -10 6 0 8 -4 5 -10 -3 -5 1 -20 9 -32 9
-12 16 -16 16 -9 0 7 6 11 14 8 8 -3 17 1 20 8 4 11 0 12 -21 4 -24 -9 -25 -8
-21 15 5 25 -16 44 -27 26z"/>
<path d="M1760 7500 c17 -33 17 -33 24 -22 3 5 -4 18 -16 28 -21 19 -21 19 -8
-6z"/>
<path d="M18527 7499 c7 -7 15 -10 18 -7 3 3 -2 9 -12 12 -14 6 -15 5 -6 -5z"/>
<path d="M1580 7479 c0 -5 -4 -7 -10 -4 -5 3 -10 1 -10 -4 0 -13 3 -13 24 -5
18 7 22 24 6 24 -5 0 -10 -5 -10 -11z"/>
<path d="M1790 7459 c0 -5 5 -7 10 -4 6 3 10 8 10 11 0 2 -4 4 -10 4 -5 0 -10
-5 -10 -11z"/>
<path d="M1580 7425 c0 -8 4 -15 10 -15 5 0 7 7 4 15 -4 8 -8 15 -10 15 -2 0
-4 -7 -4 -15z"/>
<path d="M1624 7415 c-9 -21 -2 -26 13 -10 8 9 9 16 3 20 -6 3 -13 -1 -16 -10z"/>
<path d="M1687 7410 c9 -11 19 -17 21 -15 6 6 -18 35 -29 35 -5 0 -1 -9 8 -20z"/>
<path d="M1664 7401 c4 -5 1 -12 -4 -14 -6 -3 -5 -4 2 -3 15 3 23 26 8 26 -6
0 -9 -4 -6 -9z"/>
<path d="M1575 7370 c-3 -5 -2 -10 4 -10 5 0 13 5 16 10 3 6 2 10 -4 10 -5 0
-13 -4 -16 -10z"/>
<path d="M1640 7326 c0 -12 -10 -16 -37 -17 -21 -1 -42 -1 -46 0 -5 1 -6 -3
-3 -8 7 -11 77 -7 100 6 16 9 16 11 2 22 -13 11 -16 11 -16 -3z"/>
<path d="M18506 7331 c-3 -5 1 -12 10 -15 21 -8 8 -27 -14 -20 -14 5 -15 4 -2
-5 22 -16 37 -13 37 6 0 21 -24 47 -31 34z"/>
<path d="M1705 7290 c-3 -5 -1 -10 4 -10 6 0 11 5 11 10 0 6 -2 10 -4 10 -3 0
-8 -4 -11 -10z"/>
<path d="M1557 7263 c-3 -5 8 -8 23 -8 15 0 26 3 23 8 -2 4 -13 7 -23 7 -10 0
-21 -3 -23 -7z"/>
<path d="M1669 7257 c-15 -11 -15 -15 -3 -32 11 -15 17 -16 26 -7 9 9 9 12 -1
12 -8 0 -11 7 -8 20 3 11 4 20 4 20 -1 0 -9 -6 -18 -13z"/>
<path d="M1570 7189 c0 -5 5 -7 10 -4 6 3 10 8 10 11 0 2 -4 4 -10 4 -5 0 -10
-5 -10 -11z"/>
<path d="M1648 7189 c6 -9 8 -19 4 -23 -4 -4 5 -2 20 5 15 6 25 16 22 21 -3 5
-11 5 -18 -1 -9 -7 -17 -7 -26 2 -12 10 -12 9 -2 -4z"/>
<path d="M1645 7099 c-4 -6 -5 -12 -2 -15 2 -3 7 2 10 11 7 17 1 20 -8 4z"/>
<path d="M1646 7058 c3 -5 10 -6 15 -3 13 9 11 12 -6 12 -8 0 -12 -4 -9 -9z"/>
<path d="M1622 7034 c-7 -8 -8 -14 -3 -14 10 0 25 19 20 25 -2 1 -10 -3 -17
-11z"/>
<path d="M1600 6990 c0 -5 5 -10 11 -10 5 0 7 5 4 10 -3 6 -8 10 -11 10 -2 0
-4 -4 -4 -10z"/>
<path d="M1665 6990 c3 -6 1 -10 -5 -10 -6 0 -8 -4 -5 -10 9 -15 35 -12 35 4
0 8 -7 17 -16 20 -8 3 -12 2 -9 -4z"/>
<path d="M1631 6972 c-1 -16 39 -72 52 -72 5 0 5 6 -2 13 -8 10 -7 17 2 26 9
10 8 11 -5 6 -11 -4 -18 -2 -18 5 0 6 -4 9 -9 5 -5 -3 -12 3 -14 12 -3 10 -5
12 -6 5z"/>
<path d="M1595 6920 c-3 -5 1 -10 10 -10 9 0 13 5 10 10 -3 6 -8 10 -10 10 -2
0 -7 -4 -10 -10z"/>
<path d="M1580 6896 c0 -2 11 -6 25 -8 13 -3 22 -1 19 3 -5 9 -44 13 -44 5z"/>
<path d="M1656 6865 c2 -11 4 -24 4 -30 0 -5 7 1 16 13 9 13 13 26 10 29 -3 4
-6 1 -6 -5 0 -16 -17 -15 -23 1 -2 6 -3 3 -1 -8z"/>
<path d="M1590 6876 c0 -2 8 -10 18 -17 15 -13 16 -12 3 4 -13 16 -21 21 -21
13z"/>
<path d="M1568 6843 c7 -3 16 -2 19 1 4 3 -2 6 -13 5 -11 0 -14 -3 -6 -6z"/>
<path d="M1634 6825 c-1 -14 2 -22 7 -19 11 6 12 44 2 44 -5 0 -9 -11 -9 -25z"/>
<path d="M1703 6827 c0 -8 6 -14 12 -14 6 0 12 6 12 14 0 7 -6 13 -12 13 -6 0
-12 -6 -12 -13z"/>
<path d="M1545 6810 c-11 -5 -14 -9 -7 -9 7 -1 10 -5 7 -11 -3 -5 -2 -10 3
-10 5 0 12 9 15 20 3 11 4 20 4 19 -1 0 -11 -4 -22 -9z"/>
<path d="M1580 6810 c0 -5 5 -10 11 -10 5 0 7 5 4 10 -3 6 -8 10 -11 10 -2 0
-4 -4 -4 -10z"/>
<path d="M1660 6806 c0 -2 7 -7 16 -10 8 -3 12 -2 9 4 -6 10 -25 14 -25 6z"/>
<path d="M1578 6783 c7 -3 16 -2 19 1 4 3 -2 6 -13 5 -11 0 -14 -3 -6 -6z"/>
<path d="M1638 6783 c7 -3 16 -2 19 1 4 3 -2 6 -13 5 -11 0 -14 -3 -6 -6z"/>
<path d="M1696 6765 c-3 -8 -1 -15 4 -15 6 0 10 7 10 15 0 8 -2 15 -4 15 -2 0
-6 -7 -10 -15z"/>
<path d="M1607 6742 c-4 -19 -12 -32 -20 -30 -7 2 -13 -1 -14 -7 -2 -13 30 -6
39 8 4 6 11 8 15 3 4 -4 0 -14 -10 -21 -18 -13 -17 -14 3 -20 13 -4 19 -12 16
-21 -3 -8 1 -14 8 -14 7 0 19 -6 25 -14 10 -12 6 -15 -19 -21 -16 -4 -35 -15
-40 -25 -8 -15 -6 -17 11 -13 16 4 18 8 7 14 -7 5 -8 9 -2 9 5 0 15 -5 21 -11
6 -6 20 -8 31 -5 18 6 19 11 10 43 -7 26 -6 38 2 43 8 5 4 9 -9 13 -12 3 -21
0 -21 -5 0 -6 -7 -5 -15 2 -9 7 -13 20 -10 28 3 8 1 20 -4 26 -5 6 -11 20 -13
31 -3 15 -6 12 -11 -13z"/>
<path d="M1630 6751 c0 -12 28 -22 35 -12 3 5 -2 12 -11 15 -21 8 -24 8 -24
-3z"/>
<path d="M1549 6733 c-11 -15 -11 -16 0 -6 7 6 20 9 27 6 8 -3 14 0 14 6 0 17
-26 13 -41 -6z"/>
<path d="M1656 6705 c3 -8 10 -12 15 -9 5 3 9 0 9 -5 0 -6 5 -11 10 -11 6 0
10 8 10 17 0 9 -3 13 -6 10 -4 -3 -15 -2 -25 4 -15 7 -17 6 -13 -6z"/>
<path d="M1518 6693 c7 -3 16 -2 19 1 4 3 -2 6 -13 5 -11 0 -14 -3 -6 -6z"/>
<path d="M1553 6662 c10 -10 14 -22 10 -27 -5 -4 -3 -5 3 -2 7 4 14 15 16 25
4 13 -1 18 -20 20 -24 2 -24 1 -9 -16z"/>
<path d="M1600 6650 c0 -5 0 -13 1 -16 0 -4 -5 -10 -11 -14 -8 -5 -7 -9 3 -13
8 -3 23 1 34 10 15 12 15 14 1 9 -12 -3 -16 0 -13 15 2 10 0 19 -6 19 -5 0 -9
-4 -9 -10z"/>
<path d="M1710 6581 c0 -5 5 -13 10 -16 6 -3 10 -2 10 4 0 5 -4 13 -10 16 -5
3 -10 2 -10 -4z"/>
<path d="M1635 6551 c12 -6 14 -10 6 -10 -8 -1 -11 -4 -8 -7 4 -4 14 -1 24 7
15 12 16 12 11 -3 -4 -10 -1 -19 8 -22 9 -3 12 -1 9 4 -3 6 -1 10 4 10 6 0 11
-7 11 -15 0 -9 6 -12 15 -9 8 4 15 16 14 28 0 20 -1 20 -9 1 -6 -15 -9 -16 -9
-4 -1 9 -7 16 -13 17 -7 1 -29 4 -48 7 -27 4 -30 3 -15 -4z"/>
<path d="M1580 6446 c0 -2 9 -6 20 -9 11 -3 20 -1 20 4 0 5 -9 9 -20 9 -11 0
-20 -2 -20 -4z"/>
<path d="M1750 6375 c0 -8 0 -18 -1 -22 0 -4 4 -9 9 -11 6 -2 9 8 8 23 -1 26
-16 36 -16 10z"/>
<path d="M1767 6273 c-12 -11 -8 -21 8 -19 8 1 21 8 27 14 9 9 7 12 -8 12 -12
0 -24 -3 -27 -7z"/>
<path d="M1791 6144 c0 -11 3 -14 6 -6 3 7 2 16 -1 19 -3 4 -6 -2 -5 -13z"/>
<path d="M17910 3110 c0 -5 5 -10 10 -10 6 0 10 5 10 10 0 6 -4 10 -10 10 -5
0 -10 -4 -10 -10z"/>
<path d="M2368 3094 c6 -11 19 -27 28 -35 16 -13 16 -12 6 7 -6 11 -19 27 -28
35 -16 13 -16 12 -6 -7z"/>
<path d="M2425 3020 c10 -11 20 -18 23 -15 7 6 -18 35 -31 35 -5 0 -2 -9 8
-20z"/>
</g>
</svg>
